<svg xmlns="http://www.w3.org/2000/svg" width="26" height="33" viewBox="0 0 26 33" fill="none">
    <path d="M25.2523 3.25804C25.2523 1.97741 24.3876 1.5888 23.1493 1.26606C21.338 0.793704 17.6109 0.000488281 12.9993 0.000488281C8.38774 0.000488281 4.65972 0.792763 2.84841 1.26512C1.61107 1.5888 0.746338 1.97647 0.746338 3.25804V21.1811V21.1877V21.1943C0.762333 22.6848 1.46992 24.0999 2.63952 24.9816L12.2616 32.2767L12.9993 32.8357L13.7379 32.2767L23.3629 24.9797C24.5447 24.0886 25.2523 22.6678 25.2523 21.1811V3.25804Z" fill="white"/>
    <path d="M12.9998 0C8.3882 0 4.66019 0.793203 2.84888 1.26556C1.61154 1.5883 0.746826 1.97596 0.746826 3.25753V21.1807V21.1872V21.1938C0.761885 22.6843 1.46943 24.0995 2.63997 24.9811L12.2621 32.2763L12.9998 32.8352L13.7384 32.2763L23.3633 24.9792C24.5452 24.0882 25.2527 22.6673 25.2527 21.1816V3.25753C25.2527 1.9769 24.388 1.5883 23.1497 1.26556C21.3384 0.793203 17.6113 0 12.9998 0ZM12.7316 0.924933L13.0224 1.82359H13.967L13.203 2.3787L13.4947 3.27641L12.7316 2.72121L11.9666 3.27641L12.2583 2.3787L11.4943 1.82359H12.439L12.7316 0.924933ZM2.52706 2.23471L2.81874 3.13336H3.7635L2.9994 3.68848L3.29108 4.58619L2.52706 4.03099L1.76303 4.58619L2.05472 3.68848L1.29069 3.13336H2.23537L2.52706 2.23471ZM22.7178 2.23471L23.0095 3.13336H23.9543L23.1902 3.68848L23.4818 4.58619L22.7178 4.03099L21.9538 4.58619L22.2455 3.68848L21.4815 3.13336H22.4261L22.7178 2.23471ZM18.2663 3.74214C18.3556 3.75437 18.4441 3.76658 18.5316 3.77975C18.7932 3.81645 19.0463 3.85598 19.291 3.8955C19.5375 3.93596 19.7765 3.9774 20.0042 4.01974L13.5681 8.90603V5.55912C14.5815 6.16038 15.2656 6.09918 15.7069 5.81878C15.9591 5.65882 16.1322 5.4264 16.2404 5.20622C17.3385 5.52896 18.557 4.84775 18.2663 3.74214ZM6.47527 3.93405C6.48374 4.02815 6.50259 4.11761 6.52894 4.20323C6.52985 4.207 6.53076 4.21072 6.53169 4.21448C6.5326 4.21825 6.53452 4.22111 6.53547 4.22487C6.81681 5.08019 7.96103 5.52334 9.01489 5.21283C9.21154 5.61179 9.68292 5.96183 10.3406 6.0531C10.7829 6.11426 11.3098 6.05683 11.8932 5.81783V10.1782L7.86507 13.2372C7.87824 13.1403 7.88671 13.0368 7.88671 12.9248V12.89V12.8279V12.7996C8.32707 12.5277 8.71562 11.998 8.91039 11.328C8.99696 11.0307 9.03274 10.7362 9.02991 10.4596C8.94899 10.4953 8.86337 10.5197 8.78245 10.5357C8.56886 10.5771 8.38541 10.5649 8.38447 10.5649C8.73732 10.5376 8.9932 10.4031 9.15974 10.2789C9.20867 10.2375 9.26231 10.1876 9.31876 10.1302C9.66691 9.77452 9.89655 9.36144 10.033 8.8825L10.6954 6.56588C10.3492 6.53389 10.0151 6.69862 9.8288 6.99219L9.50887 7.49648L9.19554 7.99235C9.12497 8.11091 8.99889 8.2182 8.85586 8.29536C8.63568 8.12317 8.46441 7.98765 8.32892 7.88133C8.30821 7.86533 8.28849 7.84933 8.26967 7.83427L8.06076 6.95734L8.36472 6.41536C8.45222 6.25822 8.48044 6.07847 8.45127 5.90627C8.43245 5.80089 8.39196 5.69744 8.32986 5.60428C8.27999 5.53089 8.17648 5.51396 8.1012 5.56195L7.33812 6.04932C7.31648 6.02768 7.2958 6.01072 7.27415 5.99755C7.22617 5.96744 7.17719 5.95997 7.1245 5.96843C7.04734 5.98161 6.96174 6.03146 6.86106 6.09921L6.66624 6.24131L6.37645 6.45297L6.1544 6.44455L6.0001 6.43794C5.84955 6.43794 5.78932 6.70892 5.92858 6.9084C6.04431 7.074 6.13557 7.28855 6.19768 7.54731C6.19859 7.55107 6.20051 7.55488 6.20145 7.55864C6.20521 7.57746 6.20894 7.59624 6.21365 7.61506C6.21647 7.63011 6.22027 7.64422 6.22309 7.65928C6.27202 7.90016 6.29745 8.17588 6.29745 8.48263C6.29745 9.16764 5.92858 10.6327 5.4534 11.5877C5.43082 11.6291 5.40729 11.6705 5.38471 11.7129L5.02717 12.3085C4.96977 12.3951 4.98295 12.5258 5.0507 12.6199C5.09963 12.6877 5.17773 12.7366 5.27935 12.7366C5.27935 12.7366 5.56631 13.0979 5.65664 13.7933C5.69804 14.1094 5.69899 14.4953 5.61337 14.9469L4.9359 15.4616L4.21696 16.0074L4.21798 4.39137C4.56331 4.3095 4.95566 4.22205 5.38943 4.13548C5.72629 4.06774 6.08949 3.99992 6.47527 3.93405ZM23.7572 5.83829L23.4501 6.07348L22.7964 6.57359L23.7572 5.83829ZM21.3903 7.64976V25.1897L18.0326 27.7349V10.2198L18.0329 10.2196L21.3902 7.64992L21.3903 7.64976ZM16.2169 8.09779L16.5085 8.99542H17.4533L16.6892 9.55061L16.9809 10.4492L16.2169 9.89407L15.4528 10.4492L15.7445 9.55061L14.9805 8.99542H15.9252L16.2169 8.09779ZM2.52706 9.88179L2.81874 10.7794H3.7635L2.9994 11.3346L3.29108 12.2332L2.52706 11.6781L1.76303 12.2322L2.05472 11.3346L1.29069 10.7794H2.23537L2.52706 9.88179ZM14.6744 12.7895V30.2804L12.9998 31.5499L11.3166 30.274V15.3593L7.95839 17.9291V27.728L10.1454 29.3862L3.19705 24.1192C3.19705 24.119 3.19646 24.1188 3.19634 24.1185L4.60015 25.1822V20.4993L7.95824 17.9287L11.3164 15.359L14.6744 12.7895ZM9.61894 12.8599L9.91157 13.7585H10.8554L10.0913 14.3137L10.383 15.2113L9.61894 14.6571L8.85492 15.2113L9.14755 14.3137L8.38258 13.7585H9.32726L9.61894 12.8599ZM2.52706 17.9608L2.81874 18.8593H3.7635L2.9994 19.4145L3.29108 20.3122L2.52706 19.7579L1.76303 20.3122L2.05472 19.4145L1.29069 18.8593H2.23537L2.52706 17.9608ZM4.36142 20.6819L3.34396 21.4608L2.17801 22.3526L3.3438 21.4601L4.36142 20.6819ZM2.01537 22.4771C2.17416 22.9336 2.42089 23.3533 2.74438 23.7068C2.42082 23.3536 2.17402 22.9338 2.01522 22.4772L2.01537 22.4771ZM23.4874 23.4319C23.4754 23.4477 23.464 23.4638 23.4518 23.4794C23.4387 23.496 23.4251 23.5123 23.4117 23.5288C23.4252 23.5122 23.4388 23.4958 23.4519 23.4791C23.4641 23.4636 23.4755 23.4476 23.4874 23.4319ZM23.1511 23.817C23.0436 23.9235 22.9287 24.0236 22.8063 24.1164C22.8044 24.1173 22.8035 24.1183 22.8026 24.1192L21.5273 25.0859L22.8065 24.1161C22.9284 24.0234 23.0434 23.9235 23.1511 23.817Z" fill="#262F61"/>
    <path d="M24.2128 19.3108V5.48926L23.4497 6.07358L21.39 7.64966V25.1898L22.8061 24.1162C23.0498 23.9308 23.2662 23.7163 23.4516 23.4792C23.9371 22.86 24.2128 22.0866 24.2128 21.2858V19.3108ZM18.0322 10.2196L14.674 12.7893V30.2805L18.0322 27.7352V10.2196ZM7.95801 17.9291V27.7281L11.3162 30.2743V15.3594L7.95801 17.9291ZM4.59979 20.4992L3.34363 21.4608L2.01501 22.4771C2.24084 23.1263 2.64451 23.7012 3.19402 24.1171L4.59979 25.1823V20.4992Z" fill="#CE3524"/>
  </svg>