<svg xmlns="http://www.w3.org/2000/svg" width="33" height="34" viewBox="0 0 33 34" fill="none">
    <path fill-rule="evenodd" clip-rule="evenodd" d="M3.79991 1.97027C5.98601 2.92985 9.57397 2.81623 11.9805 1C15.3455 3.46556 18.5842 3.21246 21.6721 1C23.7309 2.48813 26.9006 3.12351 29.8748 2.0015L31.2081 3.85402C27.7314 8.50038 29.0183 12.9417 32.6044 16.8502L31.0985 18.3771C31.4397 28.3984 23.678 30.791 19.2211 31.0394L16.8248 33L14.4464 31.0687C6.48949 30.3815 2.28837 26.1838 2.54828 18.4028L1 16.8385C4.02518 13.5664 6.29842 9.09506 2.41232 3.85301L3.79991 1.97027Z" fill="black" stroke="black" stroke-width="0.0389009"/>
    <path fill-rule="evenodd" clip-rule="evenodd" d="M3.98109 18.201H29.5844C30.2573 25.286 25.756 29.1128 18.9112 29.489L14.5617 29.5C8.01311 29.0293 3.13419 25.5718 3.98109 18.201Z" fill="#004D98"/>
    <path d="M18.6452 18.2863H15.0184V29.6076H18.6452V18.2863Z" fill="#A50044"/>
    <path d="M11.4269 18.2863H7.80011V28.4043H11.4269V18.2863Z" fill="#A50044"/>
    <path d="M11.4269 27.8859H9.06464V28.9281H11.4269V27.8859Z" fill="#A50044"/>
    <path d="M25.8223 18.2863H22.1955V28.4043H25.8223V18.2863Z" fill="#A50044"/>
    <path d="M24.5578 27.8859H22.1955V28.9281H24.5578V27.8859Z" fill="#A50044"/>
    <path fill-rule="evenodd" clip-rule="evenodd" d="M16.7139 4.31134V14.3673L4.49203 14.4557L5.75179 9.61559L4.18262 3.82511L11.918 2.83057L16.7139 4.31134Z" fill="white"/>
    <path fill-rule="evenodd" clip-rule="evenodd" d="M16.8907 4.31134V14.3673L29.1126 14.4557L27.8529 9.61559L29.422 3.82511L21.6867 2.83057L16.8907 4.31134Z" fill="#FFED02"/>
    <path d="M13.1559 3.11707H9.65173V14.305H13.1559V3.11707Z" fill="#DB0030"/>
    <path d="M16.7139 10.7944V7.29016H5.80994V10.7944H16.7139Z" fill="#DB0030"/>
    <path d="M19.2835 3.91016H17.9875V14.2322H19.2835V3.91016Z" fill="#DB0030"/>
    <path d="M21.7437 3.17065H20.4477V14.2564H21.7437V3.17065Z" fill="#DB0030"/>
    <path d="M24.2201 3.79553H22.9241V14.2796H24.2201V3.79553Z" fill="#DB0030"/>
    <path d="M26.6734 4.17944H25.3773V14.27H26.6734V4.17944Z" fill="#DB0030"/>
    <path fill-rule="evenodd" clip-rule="evenodd" d="M11.9602 1.79651C9.7031 3.45084 6.13151 3.6249 4.08121 2.79775L3.26003 3.85491C6.78296 8.81192 4.75888 13.799 1.96552 16.8533L3.25185 18.2146C2.72987 25.6861 7.09006 30.0072 14.7552 30.4518L16.8327 32.1869L18.9061 30.4245C23.3698 30.3475 31.1968 27.8441 30.3535 18.2037L31.6466 16.8642C28.3661 13.226 27.2354 8.24295 30.4053 3.85491L29.6346 2.80457C26.8298 3.72632 23.621 3.21539 21.6902 1.8197C18.794 3.89472 15.1161 4.10891 11.9602 1.79651ZM21.7161 3.21652C23.4574 4.29772 25.3816 4.60538 28.6988 4.31461C27.0377 7.18858 26.8583 10.6122 28.3292 13.9178L5.30888 13.9041C6.547 10.9504 6.83108 7.55162 4.89011 4.24913C7.28273 4.5965 9.61993 4.51327 11.9506 3.24517C15.1119 5.10098 18.3641 5.13493 21.7161 3.21652ZM4.4918 18.3128H29.1776C29.8264 25.1438 25.4864 28.8327 18.887 29.1955L14.6924 29.2064C8.37856 28.7525 3.67526 25.4193 4.4918 18.3128Z" fill="#EDBB00" stroke="#DEB405" stroke-width="0.0364844"/>
    <path fill-rule="evenodd" clip-rule="evenodd" d="M4.86353 4.28515C6.80449 7.58764 6.52021 10.9864 5.28209 13.9401L28.3018 13.9537C26.831 10.6482 27.011 7.22445 28.6721 4.35048C25.3549 4.64125 23.4312 4.33389 21.6899 3.25269C18.3379 5.17109 15.0847 5.1364 11.9233 3.28059C9.59267 4.54869 7.25614 4.63252 4.86353 4.28515Z" stroke="black" stroke-width="0.155603"/>
    <path fill-rule="evenodd" clip-rule="evenodd" d="M4.49152 18.3129H29.1769C29.8257 25.1438 25.4858 28.8334 18.8864 29.1962L14.6928 29.2068C8.37899 28.7529 3.67498 25.4193 4.49152 18.3129Z" stroke="black" stroke-width="0.155603"/>
    <path d="M16.8101 4.63037V13.9578" stroke="black" stroke-width="0.155603"/>
    <path d="M20.2146 23.6358C20.2146 24.0766 20.1279 24.5131 19.9593 24.9204C19.7906 25.3276 19.5434 25.6977 19.2318 26.0094C18.9201 26.3211 18.5501 26.5684 18.1429 26.7371C17.7357 26.9058 17.2992 26.9926 16.8584 26.9926C16.4176 26.9926 15.9811 26.9058 15.5739 26.7371C15.1667 26.5684 14.7967 26.3211 14.485 26.0094C14.1734 25.6977 13.9262 25.3276 13.7576 24.9204C13.5889 24.5131 13.5022 24.0766 13.5023 23.6358C13.5022 23.195 13.5889 22.7586 13.7576 22.3513C13.9262 21.944 14.1734 21.574 14.485 21.2623C14.7967 20.9506 15.1667 20.7033 15.5739 20.5346C15.9811 20.3659 16.4176 20.2791 16.8584 20.2791C17.2992 20.2791 17.7357 20.3659 18.1429 20.5346C18.5501 20.7033 18.9201 20.9506 19.2318 21.2623C19.5434 21.574 19.7906 21.944 19.9593 22.3513C20.1279 22.7586 20.2146 23.195 20.2146 23.6358Z" fill="#EDBB00" stroke="black" stroke-width="0.156383"/>
    <path d="M14.9224 20.9021C14.5307 22.3299 14.2877 23.7357 15.4178 24.4112C16.2075 24.8833 16.7414 23.9206 16.8893 23.5477" stroke="black" stroke-width="0.136153"/>
    <path d="M13.7526 24.9894C14.4142 24.9592 14.7594 24.9047 15.1837 24.26" stroke="black" stroke-width="0.136153"/>
    <path d="M16.8615 23.5726C17.5254 23.1645 18.1159 23.362 18.3902 24.3836C19.0364 24.124 19.6591 24.6227 19.8214 25.1267" stroke="black" stroke-width="0.136153"/>
    <path d="M18.404 24.3837C17.9135 25.5678 16.6234 26.116 14.8123 26.2965" stroke="black" stroke-width="0.136153"/>
    <path d="M16.8624 23.6212C16.4549 23.2481 15.828 22.8211 16.7413 21.7241C16.3538 21.233 16.2482 20.7532 16.7548 20.2979" stroke="black" stroke-width="0.136153"/>
    <path d="M20.1993 23.8364C19.6033 22.7828 18.216 21.3228 16.7414 21.7105" stroke="black" stroke-width="0.136153"/>
    <path d="M12.1659 14.5168V14.5291H11.5562V15.7131V16.3843V17.7006H12.215V16.3843H13.1549V15.7131H12.215V15.1989H13.8369V14.5168H12.1659Z" fill="black"/>
    <path fill-rule="evenodd" clip-rule="evenodd" d="M17.1538 15.5104L17.7452 15.2016C17.3677 14.367 15.8372 14.1296 15.3338 15.2016C14.8143 16.4802 15.3665 17.6681 16.3719 17.7839C17.0108 17.8769 17.5171 17.5641 17.732 17.0085L17.1472 16.6734C16.9915 17.0615 16.3977 17.3286 15.9448 16.68C15.8054 16.3902 15.7696 15.9441 15.9251 15.5104C16.2965 15.0001 16.8394 15.0554 17.1538 15.5104Z" fill="black" stroke="black" stroke-width="0.00778018"/>
    <path fill-rule="evenodd" clip-rule="evenodd" d="M19.4146 14.525L19.4269 17.7252L21.1688 17.7183C21.7356 17.639 22.4787 16.7111 21.6081 15.99C22.0683 15.5844 22.0107 14.7167 21.0897 14.5318L19.4146 14.525ZM20.0844 15.1552H20.9519C21.3334 15.265 21.2202 15.6318 20.9642 15.694H20.0844V15.1552ZM20.0912 16.3188L21.0038 16.3311C21.4552 16.4654 21.3532 16.9798 21.0174 17.0677L20.098 17.0609L20.0912 16.3188Z" fill="black" stroke="black" stroke-width="0.0389009"/>
  </svg>