<svg xmlns="http://www.w3.org/2000/svg" width="31" height="40" viewBox="0 0 31 40" fill="none">
    <path d="M15.3433 38.2315C22.7862 38.2315 28.8199 32.1979 28.8199 24.7549C28.8199 17.312 22.7862 11.2783 15.3433 11.2783C7.90032 11.2783 1.86664 17.312 1.86664 24.7549C1.86664 32.1979 7.90032 38.2315 15.3433 38.2315Z" fill="white"/>
    <path d="M11.4476 13.0025L9.51068 8.14655L10.3727 6.77161L16.5218 7.31176L20.1283 8.14655L20.7885 9.46147L19.1189 13.0025L11.4531 13.5263L11.4476 13.0025Z" fill="white"/>
    <path d="M15.2996 39.0444C7.38279 39.0444 0.960938 32.6281 0.960938 24.7058C0.960938 18.6331 4.73657 13.4389 10.0727 11.3492L10.0672 11.3437C9.94716 11.1964 9.82713 11.0436 9.71801 10.88C9.02508 9.85422 8.84503 7.76998 10.3727 6.76605C11.7586 5.85488 13.4282 6.50961 13.6682 6.61328V6.60237C13.701 5.72939 14.4157 5.03101 15.2942 5.03101C16.1726 5.03101 16.8928 5.72939 16.9201 6.60237V6.61328C17.1656 6.50961 18.8297 5.86034 20.2156 6.76605C21.7433 7.76998 21.5632 9.85422 20.8703 10.88C20.7612 11.0436 20.6412 11.1964 20.5211 11.3437L20.5157 11.3492C25.8517 13.4389 29.6274 18.6277 29.6274 24.7058C29.6328 32.6281 23.2164 39.0444 15.2996 39.0444ZM15.2996 37.7568C22.4962 37.7568 28.3507 31.9024 28.3507 24.7058C28.3507 17.5092 22.4962 11.6547 15.2996 11.6547C8.103 11.6602 2.24858 17.5092 2.24858 24.7058C2.24858 31.9024 8.103 37.7568 15.2996 37.7568ZM15.2996 7.51354C15.1305 7.51354 14.9832 7.6554 14.9013 7.86273H14.8959C14.7322 7.75907 13.941 7.28984 12.9753 7.64449H12.9699C12.5879 7.52991 11.8077 7.39896 11.1202 7.88456C10.1927 8.53929 10.3891 9.93606 10.8474 10.6617C11.2457 11.2946 11.8077 11.8348 12.0641 12.0639L12.0696 12.0694L12.1023 12.4732C13.1226 12.1894 14.192 12.0367 15.2996 12.0367C16.4072 12.0367 17.4766 12.1894 18.4969 12.4732L18.5296 12.0694L18.5351 12.0639C18.7861 11.8348 19.3535 11.2946 19.7518 10.6617C20.2101 9.93606 20.4065 8.53929 19.479 7.88456C18.7915 7.39896 18.0113 7.53536 17.6294 7.64449H17.6239C16.6582 7.2953 15.8671 7.75907 15.7034 7.86273H15.6979C15.6106 7.64994 15.4633 7.51354 15.2996 7.51354Z" fill="black"/>
    <path d="M15.2995 5.0364C16.178 5.0364 16.8982 5.73478 16.9255 6.60776V6.61867C17.0728 6.55866 17.733 6.29676 18.5405 6.29676C19.0752 6.29676 19.6699 6.41134 20.2264 6.77144C21.7541 7.77537 21.5741 9.85961 20.8811 10.8854C20.772 11.049 20.652 11.2018 20.532 11.3491L20.5265 11.3546C25.8626 13.4443 29.6382 18.633 29.6382 24.7112C29.6382 32.628 23.2218 39.0498 15.2995 39.0498C7.38271 39.0444 0.960861 32.628 0.960861 24.7057C0.960861 18.633 4.73649 13.4388 10.0726 11.3491L10.0671 11.3437C9.94709 11.1964 9.82705 11.0436 9.71793 10.8799C9.025 9.85415 8.84495 7.76991 10.3727 6.76599C10.9237 6.40588 11.5239 6.29131 12.0586 6.29131C12.8661 6.29131 13.5263 6.5532 13.6736 6.61322V6.6023C13.7009 5.73478 14.4156 5.0364 15.2995 5.0364ZM15.6978 7.86267C15.616 7.64988 15.4687 7.51348 15.2995 7.51348C15.1304 7.51348 14.9831 7.65534 14.9012 7.86267H14.8958C14.7758 7.78628 14.3174 7.51348 13.7009 7.51348C13.4772 7.51348 13.2317 7.55167 12.9752 7.64442H12.9698C12.7952 7.59532 12.5442 7.54076 12.2496 7.54076C11.9004 7.54076 11.4966 7.6226 11.1202 7.88449C10.1926 8.53923 10.389 9.93599 10.8473 10.6617C11.2456 11.2946 11.8076 11.8347 12.0641 12.0639L12.0695 12.0693C6.42789 13.5098 2.2485 18.633 2.2485 24.7166C2.2485 31.9132 8.10292 37.7677 15.2995 37.7677C22.4962 37.7677 28.3506 31.9132 28.3506 24.7166C28.3506 18.633 24.1712 13.5098 18.5296 12.0693L18.535 12.0639C18.786 11.8347 19.3534 11.2946 19.7517 10.6617C20.21 9.93599 20.4065 8.53923 19.4789 7.88449C19.1025 7.61714 18.6987 7.54076 18.3495 7.54076C18.0603 7.54076 17.8039 7.59532 17.6293 7.64442H17.6238C17.3674 7.55167 17.1219 7.51348 16.8982 7.51348C16.2762 7.51348 15.8179 7.78083 15.6978 7.86267ZM15.2995 11.6601C16.4126 11.6601 17.4929 11.802 18.5296 12.0639L18.4968 12.4676C17.4765 12.1839 16.4071 12.0311 15.2995 12.0311C14.1919 12.0311 13.1225 12.1839 12.1023 12.4676L12.0695 12.0639C13.1007 11.7965 14.1865 11.6601 15.2995 11.6601ZM15.2995 4.21252C14.6612 4.21252 14.0501 4.45805 13.5918 4.90545C13.3844 5.10187 13.2208 5.33648 13.0953 5.58201C12.7952 5.51654 12.4405 5.47289 12.0586 5.47289C11.262 5.47289 10.5418 5.68022 9.91981 6.08397C9.14504 6.59139 8.63762 7.34979 8.45211 8.28279C8.27206 9.17759 8.41937 10.1979 8.82313 10.9945C7.78101 11.4855 6.79345 12.1021 5.88774 12.8223C4.71467 13.7498 3.69438 14.841 2.83777 16.0687C1.06998 18.6058 0.131531 21.5957 0.131531 24.7057C0.131531 26.7518 0.535284 28.7378 1.32096 30.6092C2.08482 32.4152 3.17604 34.0357 4.57281 35.427C5.96958 36.8183 7.58459 37.915 9.39056 38.6788C11.262 39.47 13.248 39.8683 15.2941 39.8683C17.3401 39.8683 19.3262 39.4645 21.1976 38.6788C23.0036 37.915 24.624 36.8237 26.0154 35.427C27.4067 34.0357 28.5033 32.4152 29.2672 30.6092C30.0583 28.7378 30.4566 26.7518 30.4566 24.7057C30.4566 21.5957 29.5236 18.6058 27.7559 16.0632C26.9047 14.8356 25.879 13.7444 24.7059 12.8168C23.7947 12.0966 22.8126 11.4855 21.7705 10.989C22.1742 10.1924 22.3216 9.17214 22.1415 8.27733C21.956 7.34434 21.4486 6.58594 20.6738 6.07852C20.0518 5.67476 19.3371 5.46743 18.535 5.46743C18.1531 5.46743 17.7984 5.51654 17.4984 5.57655C17.3729 5.32557 17.2092 5.09642 17.0018 4.9C16.5435 4.45805 15.9379 4.21252 15.2995 4.21252ZM15.3214 9.03573L16.107 8.58288H16.1125L16.1343 8.57196L16.1562 8.56105C16.1889 8.53923 16.4944 8.34826 16.8982 8.34826C17.0455 8.34826 17.1928 8.37554 17.3401 8.4301L17.3674 8.44102L17.3947 8.44647H17.4001L17.6348 8.51195L17.8694 8.44102C17.9839 8.40828 18.1585 8.37009 18.355 8.37009C18.6114 8.37009 18.8242 8.43556 19.0097 8.56651C19.5062 8.9157 19.3043 9.83233 19.0588 10.2252C18.8296 10.5853 18.5296 10.9236 18.295 11.1582C17.3145 10.9443 16.3139 10.8363 15.3105 10.8363C14.3065 10.8363 13.3026 10.9454 12.326 11.1582C12.0859 10.9181 11.7858 10.5853 11.5621 10.2252C11.3166 9.83233 11.1147 8.9157 11.6112 8.56651C11.7967 8.43556 12.0095 8.37009 12.2659 8.37009C12.4624 8.37009 12.637 8.40828 12.7515 8.44102L12.9861 8.51195L13.2208 8.44647H13.2262L13.2535 8.44102L13.2808 8.4301C13.4226 8.37554 13.5754 8.34826 13.7227 8.34826C14.1265 8.34826 14.432 8.53923 14.4648 8.56105L14.4866 8.57196L14.5084 8.58288H14.5139L15.2995 9.03573L15.3105 9.05756L15.3268 9.04665L15.3432 9.05756L15.3214 9.03573ZM11.3493 13.537L12.3205 13.2642C13.2862 12.9969 14.2847 12.8605 15.2941 12.8605C16.3035 12.8605 17.3019 12.9969 18.2677 13.2642L19.2389 13.537L19.2661 13.1496C20.221 13.477 21.1267 13.9244 21.9778 14.4809C23.0909 15.2121 24.0675 16.1123 24.8914 17.1544C25.7207 18.2075 26.37 19.3805 26.8174 20.6409C27.2757 21.9449 27.5103 23.3089 27.5103 24.7057C27.5103 31.444 22.0269 36.9274 15.2886 36.9274C8.55032 36.9274 3.06692 31.444 3.06692 24.7057C3.06692 23.3144 3.30154 21.9449 3.75985 20.6409C4.20725 19.3805 4.85107 18.2075 5.68586 17.1544C6.50973 16.1069 7.49183 15.2121 8.59943 14.4809C9.45058 13.9244 10.3563 13.477 11.3111 13.1496L11.3493 13.537Z" fill="white"/>
    <path d="M13.2372 15.2721L13.0844 14.5519L12.8771 14.5956L12.8553 14.4919L12.8717 14.4864C12.9644 14.4646 13.0735 14.421 13.0735 14.29L13.0681 14.2682L13.1827 14.2409L13.3954 15.2339L13.2372 15.2721ZM14.323 14.8138C14.3121 14.6665 14.3775 14.5737 14.4812 14.5519V14.5465C14.3939 14.5246 14.3339 14.4592 14.3284 14.3391C14.3175 14.1809 14.4157 14.0772 14.5849 14.0663C14.754 14.0554 14.8631 14.1427 14.874 14.3009C14.8795 14.421 14.8359 14.4919 14.7486 14.5301V14.5355C14.8522 14.5465 14.9286 14.6283 14.9395 14.7756C14.9504 14.972 14.8631 15.0866 14.6558 15.0975C14.443 15.1084 14.3339 15.0102 14.323 14.8138ZM14.6067 14.481C14.7104 14.4755 14.7267 14.3991 14.7213 14.3173C14.7158 14.2355 14.6831 14.17 14.5849 14.1754C14.4812 14.1809 14.4648 14.2573 14.4703 14.3337C14.4758 14.421 14.5085 14.4919 14.6067 14.481ZM14.6394 14.9775C14.754 14.972 14.7758 14.8847 14.7704 14.7756C14.7649 14.6665 14.7267 14.5846 14.6176 14.5956C14.503 14.601 14.4812 14.6883 14.4867 14.7974C14.4921 14.9011 14.5249 14.9884 14.6394 14.9775ZM15.9162 14.8465C15.9107 14.9066 15.9325 14.9775 16.0144 14.9884C16.1671 14.9993 16.189 14.7974 16.1999 14.6501L16.1944 14.6447C16.1508 14.7156 16.0799 14.7429 15.9871 14.7374C15.8507 14.7265 15.747 14.6174 15.7579 14.4155C15.7743 14.1809 15.8834 14.0499 16.0962 14.0663C16.3527 14.0827 16.3854 14.2846 16.3636 14.5737C16.3417 14.8738 16.2654 15.1139 15.998 15.0975C15.8234 15.0866 15.7307 14.9993 15.7416 14.8302L15.9162 14.8465ZM16.0799 14.1809C15.9816 14.1754 15.938 14.2682 15.9271 14.3882C15.9162 14.5301 15.9544 14.6119 16.0471 14.6174C16.1671 14.6283 16.1944 14.5246 16.2053 14.4046C16.2163 14.2846 16.1781 14.1918 16.0799 14.1809ZM17.3402 15.2667L17.4984 14.5465L17.2911 14.5028L17.3129 14.3991L17.3293 14.4046C17.4221 14.4264 17.5421 14.4264 17.5967 14.3064L17.6021 14.2846L17.7167 14.3118L17.4984 15.2994L17.3402 15.2667Z" fill="black"/>
    <path d="M15.4742 6.97886V7.26804C15.4742 7.28986 15.4578 7.30623 15.436 7.30623H15.1577C15.1359 7.30623 15.1195 7.28986 15.1195 7.26804V6.96795H14.8194C14.7976 6.96795 14.7812 6.95158 14.7812 6.92976V6.6515C14.7812 6.62967 14.7976 6.6133 14.8194 6.6133H15.1195V6.31322C15.1195 6.29139 15.1359 6.27502 15.1577 6.27502H15.436C15.4578 6.27502 15.4742 6.29139 15.4742 6.31322V6.61876H15.7743C15.7961 6.61876 15.8125 6.63513 15.8125 6.65695V6.93521C15.8125 6.95704 15.7961 6.97341 15.7743 6.97341H15.4742V6.97886Z" fill="white"/>
    <path d="M15.2996 9.83782C15.6401 9.83782 15.9161 9.56178 15.9161 9.22128C15.9161 8.88077 15.6401 8.60474 15.2996 8.60474C14.9591 8.60474 14.683 8.88077 14.683 9.22128C14.683 9.56178 14.9591 9.83782 15.2996 9.83782Z" fill="black"/>
    <path d="M15.2996 10.8254C15.4865 10.8254 15.6379 10.6739 15.6379 10.4871C15.6379 10.3003 15.4865 10.1488 15.2996 10.1488C15.1128 10.1488 14.9614 10.3003 14.9614 10.4871C14.9614 10.6739 15.1128 10.8254 15.2996 10.8254Z" fill="black"/>
    <path d="M15.2996 12.7513C15.4292 12.7513 15.5342 12.6463 15.5342 12.5167C15.5342 12.3871 15.4292 12.2821 15.2996 12.2821C15.17 12.2821 15.065 12.3871 15.065 12.5167C15.065 12.6463 15.17 12.7513 15.2996 12.7513Z" fill="black"/>
    <path d="M12.7407 13.0024C12.8703 13.0024 12.9753 12.8974 12.9753 12.7678C12.9753 12.6382 12.8703 12.5332 12.7407 12.5332C12.6111 12.5332 12.5061 12.6382 12.5061 12.7678C12.5061 12.8974 12.6111 13.0024 12.7407 13.0024Z" fill="black"/>
    <path d="M5.65867 29.3653L5.5059 28.9888C5.52772 28.9834 5.54409 28.9779 5.555 28.9725C5.82235 28.8633 5.92056 28.716 5.84418 28.5251C5.80053 28.4214 5.73505 28.3614 5.6423 28.345C5.58228 28.3341 5.52772 28.3396 5.4677 28.3559C5.41314 28.3723 5.35313 28.3941 5.2822 28.4214L4.51834 28.7324C4.35466 28.7979 4.24553 28.8579 4.19097 28.9124C4.10913 28.9943 4.09276 29.0925 4.14187 29.218C4.21825 29.4144 4.40922 29.4471 4.7093 29.3271C4.72022 29.3217 4.74204 29.3162 4.76932 29.3053L4.92209 29.6818C4.8839 29.6981 4.85662 29.709 4.83479 29.7145C4.61109 29.8018 4.41467 29.8291 4.25099 29.7854C4.05457 29.7363 3.90725 29.589 3.80904 29.3544C3.70538 29.1034 3.71629 28.8852 3.84724 28.7051C3.91271 28.6124 3.99455 28.536 4.09822 28.4814C4.18552 28.4378 4.28918 28.3887 4.41467 28.3341L5.05304 28.0777C5.27128 27.9904 5.43497 27.9413 5.52772 27.9358C5.70232 27.9249 5.84963 27.9794 5.96967 28.0886C6.05151 28.165 6.12244 28.2632 6.17154 28.3887C6.25339 28.596 6.25884 28.7815 6.18791 28.9452C6.11153 29.1143 5.95876 29.2453 5.7296 29.338C5.71869 29.3435 5.69141 29.3544 5.65867 29.3653ZM6.90812 29.9055L5.11851 31.0512L5.555 31.7333L5.25492 31.9242L4.60018 30.8985L6.68987 29.5617L6.90812 29.9055ZM8.27761 31.646L8.55587 31.9406L7.32824 33.0864C7.18093 33.2228 7.06089 33.3101 6.96268 33.3483C6.70624 33.4519 6.46617 33.3865 6.24247 33.1464C6.07879 32.9663 6.00786 32.7863 6.03514 32.5953C6.05151 32.4862 6.0897 32.388 6.16063 32.3061C6.22065 32.2298 6.29158 32.1479 6.37888 32.0661L7.6065 30.9203L7.88476 31.2149L6.60803 32.4153C6.50437 32.5135 6.44435 32.5953 6.42252 32.6663C6.4007 32.7536 6.42252 32.8299 6.49891 32.9118C6.56984 32.9882 6.65168 33.0209 6.73898 33.0045C6.80991 32.9936 6.89721 32.9336 7.00087 32.8408L8.27761 31.646ZM7.61741 34.4013L9.04692 32.3771L9.54343 32.7263C9.73439 32.8572 9.85442 33.0045 9.90353 33.1628C9.95809 33.3374 9.93081 33.512 9.80532 33.6865C9.71256 33.8229 9.59253 33.8993 9.45613 33.9266C9.36337 33.943 9.25971 33.9321 9.13422 33.8884C9.22697 33.9975 9.28153 34.0958 9.30336 34.1831C9.34155 34.3413 9.30881 34.4995 9.19423 34.6577C9.06874 34.8378 8.90506 34.936 8.7141 34.9578C8.53404 34.9742 8.34854 34.9196 8.15211 34.7778L7.61741 34.4013ZM8.15211 34.3413L8.32125 34.4613C8.43038 34.5377 8.53404 34.5704 8.6268 34.5595C8.71955 34.5486 8.79594 34.4995 8.85595 34.4122C8.92143 34.3195 8.94325 34.2158 8.92688 34.1067C8.90506 33.9921 8.83959 33.8939 8.7141 33.8066L8.59406 33.7193L8.15211 34.3413ZM8.79594 33.4356L8.91597 33.5229C9.01964 33.5938 9.11785 33.6265 9.21606 33.6156C9.30881 33.6047 9.39065 33.5556 9.45067 33.4738C9.50523 33.3974 9.5216 33.3155 9.49978 33.2337C9.48341 33.1573 9.41248 33.0755 9.30336 32.9991L9.17787 32.9063L8.79594 33.4356ZM10.5855 36.1473L11.404 33.8066L11.9769 34.0085C12.1951 34.0848 12.3479 34.194 12.4461 34.3304C12.5497 34.4831 12.5661 34.6632 12.5006 34.8596C12.4461 35.0124 12.3533 35.1215 12.2278 35.187C12.146 35.2306 12.0369 35.247 11.9114 35.2361C12.0314 35.3179 12.1133 35.3943 12.1569 35.4707C12.2387 35.6071 12.2497 35.7708 12.1842 35.9617C12.1133 36.1691 11.9878 36.3109 11.8023 36.3819C11.6386 36.4473 11.4422 36.4419 11.213 36.3655L10.5855 36.1473ZM11.0875 35.9454L11.2785 36.0109C11.4094 36.0545 11.5131 36.06 11.6004 36.0218C11.6877 35.9836 11.7477 35.9181 11.7804 35.8199C11.8186 35.7108 11.8132 35.6071 11.7641 35.5089C11.715 35.4052 11.6167 35.3288 11.4749 35.2797L11.333 35.2306L11.0875 35.9454ZM11.4531 34.8924L11.5949 34.9415C11.715 34.9851 11.8186 34.9851 11.9114 34.9469C11.9987 34.9087 12.0587 34.8432 12.0969 34.745C12.1296 34.6577 12.1187 34.5759 12.0751 34.4995C12.0369 34.4286 11.9496 34.374 11.8186 34.3304L11.6713 34.2813L11.4531 34.8924ZM13.5209 35.9126L13.3845 36.9166L12.9808 36.862L13.3136 34.4013L13.9465 34.4886C14.1702 34.5213 14.3339 34.5923 14.443 34.7068C14.5794 34.8542 14.634 35.0506 14.6012 35.2961C14.5576 35.6071 14.4103 35.809 14.1593 35.8908L14.3939 37.053L13.9683 36.9984L13.761 35.9454L13.5209 35.9126ZM13.57 35.558L13.7174 35.5798C13.8319 35.5962 13.9083 35.5962 13.9629 35.5853C14.0884 35.5525 14.1648 35.4489 14.192 35.2634C14.2084 35.127 14.192 35.0288 14.132 34.9578C14.0993 34.9142 14.0556 34.8869 14.0011 34.8705C13.952 34.8542 13.8919 34.8432 13.8265 34.8378L13.6792 34.816L13.57 35.558ZM16.3254 34.5322L16.7291 34.4995L16.8546 36.1745C16.871 36.3764 16.8601 36.5237 16.8328 36.6219C16.751 36.8893 16.5491 37.0366 16.2217 37.0584C15.9816 37.0748 15.7961 37.0148 15.6652 36.8784C15.5888 36.7965 15.5397 36.7038 15.5179 36.6001C15.496 36.5074 15.4797 36.3982 15.4688 36.2782L15.3433 34.6032L15.747 34.5704L15.878 36.3109C15.8889 36.4528 15.9162 36.551 15.9598 36.611C16.0089 36.682 16.0908 36.7147 16.1999 36.7038C16.309 36.6983 16.3799 36.6547 16.4236 36.5783C16.4563 36.5128 16.4672 36.4146 16.4563 36.2727L16.3254 34.5322ZM18.3823 35.3998L19.0971 35.1924L19.4408 36.371L19.2389 36.431L19.1135 36.2509C19.0807 36.3328 19.0425 36.3982 18.9989 36.4473C18.9279 36.5292 18.8297 36.5892 18.7042 36.6274C18.546 36.671 18.4042 36.6656 18.2732 36.611C18.1368 36.5565 18.0277 36.4419 17.9458 36.2782C17.9077 36.1964 17.8585 36.0709 17.8094 35.9017L17.6185 35.2415C17.553 35.0124 17.5203 34.8487 17.5257 34.7505C17.5312 34.5759 17.5967 34.434 17.7221 34.3249C17.8094 34.2485 17.9131 34.194 18.0441 34.1558C18.3223 34.0739 18.5515 34.123 18.7315 34.3031C18.8243 34.3958 18.9061 34.5541 18.9661 34.7723L18.5733 34.8869C18.5296 34.745 18.486 34.6468 18.4369 34.5923C18.3551 34.4995 18.2568 34.4722 18.1368 34.505C18.0277 34.5377 17.9622 34.6032 17.9404 34.6959C17.9295 34.7505 17.9295 34.8105 17.9404 34.8705C17.9513 34.9251 17.9677 34.9851 17.9895 35.0615L18.2023 35.7926C18.2514 35.9672 18.3059 36.0927 18.3551 36.1636C18.4314 36.2727 18.5406 36.3055 18.6715 36.2673C18.7861 36.2346 18.8516 36.1636 18.8679 36.0545C18.8788 35.9727 18.8679 35.8581 18.8243 35.7108L18.797 35.6126L18.4751 35.7053L18.3823 35.3998ZM20.412 34.5868L21.0722 34.2431L21.6396 35.3343L21.4541 35.4325L21.2959 35.2797C21.2795 35.367 21.2577 35.438 21.225 35.4925C21.1704 35.5907 21.0831 35.6671 20.974 35.7217C20.8321 35.7981 20.6848 35.8199 20.5484 35.7926C20.4011 35.7653 20.2756 35.678 20.161 35.5307C20.1065 35.4598 20.0355 35.3452 19.9537 35.187L19.6372 34.5814C19.5281 34.3686 19.4626 34.2158 19.4517 34.1176C19.4245 33.9484 19.4626 33.7957 19.5609 33.6647C19.6318 33.572 19.7245 33.4956 19.8391 33.4356C20.0956 33.2992 20.3302 33.3046 20.543 33.441C20.6521 33.5174 20.7612 33.6538 20.8649 33.8502L20.5048 34.0412C20.4338 33.9102 20.3738 33.823 20.3138 33.7793C20.2156 33.7084 20.1119 33.6975 20.0028 33.752C19.8991 33.8066 19.85 33.883 19.8446 33.9757C19.8446 34.0357 19.8555 34.0903 19.8773 34.1449C19.8991 34.194 19.9264 34.254 19.9592 34.3195L20.3083 34.9906C20.3956 35.1542 20.4666 35.2688 20.532 35.3288C20.6303 35.4216 20.7394 35.4325 20.8649 35.367C20.9685 35.3125 21.0176 35.2306 21.0176 35.1215C21.0122 35.0397 20.9794 34.9305 20.9085 34.7941L20.8649 34.7068L20.5702 34.8596L20.412 34.5868ZM21.907 32.0661L22.1307 32.3443L21.5141 32.8299L21.9179 33.3428L22.3708 32.9882L22.5945 33.2664L22.1416 33.6211L22.6108 34.2158L23.2274 33.7302L23.4511 34.0085L22.5181 34.745L20.9849 32.7972L21.907 32.0661ZM22.9491 30.9476L23.1401 30.6802L24.1331 31.3786L24.1385 31.3732L23.6748 29.9218L23.8821 29.6217L24.2749 30.8821L25.9663 31.0076L25.759 31.3077L24.3622 31.1986L24.4932 31.6296L25.1916 32.1206L25.0006 32.388L22.9491 30.9476ZM24.0349 29.3435L24.1713 29.027L26.3537 29.3871L26.3592 29.3817L24.5859 28.0613L24.7223 27.7448L26.7629 29.338L26.5992 29.72L24.0349 29.3435ZM15.2996 13.5262C16.2217 13.5262 17.1001 13.4662 17.9077 13.3516C18.1477 13.3189 18.1041 13.2588 17.8913 13.2206C17.051 13.0733 16.1835 12.9969 15.2996 12.9969C14.4103 12.9969 13.5428 13.0733 12.708 13.2206C12.4952 13.2588 12.457 13.3189 12.6916 13.3516C13.4991 13.4662 14.3775 13.5262 15.2996 13.5262ZM24.4223 24.7058C24.4223 29.7472 20.3356 33.8284 15.2996 33.8284C10.2636 33.8284 6.17154 29.7472 6.17154 24.7058C6.17154 19.6643 10.2582 15.5831 15.2942 15.5831C20.3356 15.5831 24.4223 19.6698 24.4223 24.7058ZM15.2996 32.7263C19.7191 32.7263 23.3147 29.1307 23.3147 24.7112C23.3147 20.2918 19.7191 16.6962 15.2996 16.6962C10.8802 16.6962 7.28459 20.2918 7.28459 24.7112C7.27914 29.1307 10.8802 32.7263 15.2996 32.7263Z" fill="black"/>
    <path d="M15.2996 32.3826C19.5393 32.3826 22.9763 28.9456 22.9763 24.7058C22.9763 20.4661 19.5393 17.0291 15.2996 17.0291C11.0598 17.0291 7.6228 20.4661 7.6228 24.7058C7.6228 28.9456 11.0598 32.3826 15.2996 32.3826Z" fill="#0078BF"/>
    <path d="M17.2147 32.1479C16.6036 32.3061 15.9598 32.3879 15.2996 32.3879C14.6667 32.3879 14.0447 32.3116 13.4554 32.1642L13.4609 32.1588L22.7472 22.8725L22.7526 22.867C22.9 23.4563 22.9763 24.0728 22.9763 24.7112C22.9763 25.3714 22.8945 26.0152 22.7363 26.6263L22.7308 26.6317L17.2201 32.1424L17.2147 32.1479ZM10.8856 30.9912C10.1599 30.4783 9.52701 29.8454 9.01414 29.1197L9.01959 29.1143L19.7027 18.4312L19.7081 18.4203C20.4338 18.9332 21.0667 19.5661 21.5796 20.2917L21.5741 20.2972L10.891 30.9857L10.8856 30.9912ZM7.84107 26.5499C7.69376 25.9606 7.61737 25.3441 7.61737 24.7057C7.61737 24.0455 7.69921 23.4017 7.85744 22.7906H7.8629L13.3736 17.2799L13.379 17.2745C13.9901 17.1163 14.6339 17.0344 15.2996 17.0344C15.9325 17.0344 16.5545 17.1108 17.1438 17.2581L17.1383 17.2636L7.84653 26.5444L7.84107 26.5499Z" fill="black"/>
    <path d="M14.072 12.7678C14.1775 12.7678 14.263 12.6823 14.263 12.5768C14.263 12.4714 14.1775 12.3859 14.072 12.3859C13.9665 12.3859 13.881 12.4714 13.881 12.5768C13.881 12.6823 13.9665 12.7678 14.072 12.7678Z" fill="black"/>
    <path d="M12.7516 11.3984C12.6152 11.4256 12.4788 11.4529 12.3369 11.4857C12.075 11.2401 11.6604 10.8146 11.3657 10.3399C11.0711 9.87065 10.8583 8.81762 11.4749 8.38113C11.704 8.22291 11.9495 8.16289 12.1787 8.15198V8.15743C11.3821 9.02496 11.9714 10.3726 12.2605 10.7818C12.446 11.0492 12.6152 11.2511 12.7516 11.3984Z" fill="black"/>
    <path d="M13.2536 11.0436C13.1335 10.9236 12.9535 10.7163 12.7571 10.4326C12.637 10.258 12.4133 9.82692 12.3915 9.39043C12.3697 8.93758 12.5716 8.53928 12.8716 8.36468C13.5264 7.97184 14.1102 8.14644 14.3939 8.27738L14.3994 8.28284C14.0993 8.36468 13.5318 8.60475 13.4445 9.24312C13.33 10.0997 14.0174 10.9291 14.2684 11.2019H14.263C14.0011 11.2237 13.7446 11.251 13.4882 11.2837C13.4936 11.2783 13.3409 11.1364 13.2536 11.0436Z" fill="black"/>
    <path d="M17.8531 13.0024C17.9827 13.0024 18.0877 12.8974 18.0877 12.7678C18.0877 12.6382 17.9827 12.5332 17.8531 12.5332C17.7235 12.5332 17.6185 12.6382 17.6185 12.7678C17.6185 12.8974 17.7235 13.0024 17.8531 13.0024Z" fill="black"/>
    <path d="M16.5218 12.7678C16.6273 12.7678 16.7128 12.6823 16.7128 12.5768C16.7128 12.4714 16.6273 12.3859 16.5218 12.3859C16.4164 12.3859 16.3309 12.4714 16.3309 12.5768C16.3309 12.6823 16.4164 12.7678 16.5218 12.7678Z" fill="black"/>
    <path d="M17.8476 11.3984C17.984 11.4256 18.1204 11.4529 18.2623 11.4857C18.5242 11.2401 18.9388 10.8146 19.2335 10.3399C19.5281 9.87065 19.7409 8.81762 19.1243 8.38113C18.8952 8.22291 18.6496 8.16289 18.4205 8.15198V8.15743C19.2171 9.02496 18.6278 10.3726 18.3386 10.7818C18.1531 11.0492 17.984 11.2511 17.8476 11.3984Z" fill="black"/>
    <path d="M17.3402 11.0436C17.4602 10.9236 17.6403 10.7163 17.8367 10.4326C17.9567 10.258 18.1804 9.82692 18.2022 9.39043C18.2241 8.93758 18.0222 8.53928 17.7221 8.36468C17.0674 7.97184 16.4836 8.14644 16.1999 8.27738L16.1944 8.28284C16.4945 8.36468 17.0619 8.60475 17.1492 9.24312C17.2638 10.0997 16.5763 10.9291 16.3253 11.2019H16.3308C16.5927 11.2237 16.8491 11.251 17.1056 11.2837C17.1001 11.2783 17.2529 11.1364 17.3402 11.0436Z" fill="black"/>
    <path d="M9.79444 15.7141C9.80535 15.7195 9.80535 15.725 9.79444 15.7359C9.73442 15.7959 9.46161 16.0414 9.03058 16.0851C8.605 16.1287 8.39221 15.9978 8.33765 15.9596C8.32674 15.9541 8.3322 15.9432 8.33765 15.9378C8.40858 15.8832 8.70867 15.6486 9.0524 15.605C9.43979 15.5559 9.72896 15.6813 9.79444 15.7141ZM5.12946 25.666C5.14037 25.6606 5.14582 25.666 5.14582 25.6769C5.15674 25.7642 5.19493 26.1462 4.96032 26.539C4.73116 26.9209 4.48563 27.0246 4.42016 27.0464C4.40925 27.0519 4.40379 27.0464 4.40379 27.0301C4.39834 26.9373 4.39288 26.539 4.57293 26.2171C4.77481 25.8625 5.06398 25.6988 5.12946 25.666ZM3.19799 25.9989C3.18708 25.9989 3.18162 26.0043 3.18162 26.0152C3.19253 26.1025 3.26346 26.479 3.59083 26.79C3.91274 27.0955 4.16918 27.1283 4.23465 27.1283C4.24556 27.1283 4.24556 27.1228 4.24556 27.1065C4.23465 26.97 4.21828 26.7136 3.86909 26.3753C3.58537 26.0971 3.27438 26.0152 3.19799 25.9989ZM3.10524 24.7549C3.09432 24.7494 3.08887 24.7549 3.08887 24.7658C3.09432 24.8476 3.13252 25.2241 3.42715 25.5515C3.71632 25.8734 3.9673 25.9279 4.02732 25.9334C4.03823 25.9334 4.04369 25.9279 4.03823 25.917C4.03823 25.7806 4.03823 25.5296 3.72723 25.175C3.47625 24.8804 3.17617 24.7767 3.10524 24.7549ZM5.06398 24.6348C5.07489 24.6294 5.08035 24.6348 5.08035 24.6457C5.08581 24.733 5.08035 25.1095 4.80754 25.4696C4.54565 25.8188 4.29467 25.8952 4.2292 25.9061C4.21828 25.9061 4.21283 25.9007 4.21283 25.8897C4.21828 25.797 4.25102 25.4096 4.45835 25.115C4.69297 24.7876 4.99305 24.6621 5.06398 24.6348ZM5.02033 23.4945C5.03125 23.489 5.0367 23.4945 5.0367 23.5054C5.03124 23.5873 5.00396 23.9528 4.72025 24.2856C4.44198 24.6075 4.19646 24.6621 4.13099 24.673C4.12007 24.673 4.11462 24.6676 4.11462 24.6567C4.12553 24.5694 4.18555 24.1929 4.40379 23.9255C4.65477 23.6254 4.9494 23.5163 5.02033 23.4945ZM5.21675 22.4469C5.22767 22.4469 5.23312 22.4524 5.23312 22.4633C5.22221 22.5451 5.14582 22.8998 4.82391 23.189C4.50746 23.4672 4.26193 23.4945 4.19646 23.4945C4.18555 23.4945 4.18009 23.489 4.18555 23.4727C4.20737 23.3854 4.31104 23.0307 4.56202 22.7907C4.84028 22.5288 5.14582 22.4633 5.21675 22.4469ZM5.5714 21.4703C5.58231 21.4703 5.58777 21.4757 5.58231 21.4867C5.56049 21.563 5.44045 21.9068 5.09126 22.1578C4.74753 22.3978 4.50746 22.3978 4.44198 22.3924C4.43107 22.3924 4.43107 22.3815 4.43107 22.3705C4.46381 22.2887 4.61112 21.945 4.88393 21.7376C5.19493 21.5085 5.50047 21.4757 5.5714 21.4703ZM6.06791 20.5264C6.07882 20.5264 6.08428 20.5318 6.07882 20.5427C6.04063 20.6137 5.87149 20.9356 5.47865 21.1211C5.09672 21.3011 4.85119 21.252 4.79118 21.2357C4.78026 21.2302 4.78026 21.2248 4.78572 21.2138C4.82937 21.1375 5.0367 20.8265 5.34224 20.6682C5.68052 20.4936 5.99152 20.5155 6.06791 20.5264ZM6.52077 19.7243C6.53168 19.7243 6.53168 19.7352 6.52622 19.7407C6.48257 19.8116 6.2807 20.1226 5.86603 20.2699C5.46228 20.4173 5.21675 20.3463 5.15674 20.3245C5.14582 20.319 5.14582 20.3136 5.15128 20.3027C5.20584 20.2317 5.44045 19.9262 5.76782 19.7953C6.13338 19.6589 6.44984 19.708 6.52077 19.7243ZM7.0882 18.8568C7.09911 18.8623 7.09911 18.8677 7.09366 18.8786C7.04455 18.9441 6.80994 19.2333 6.37891 19.3424C5.96424 19.4461 5.72963 19.3533 5.66961 19.326C5.6587 19.3206 5.6587 19.3151 5.66961 19.3042C5.72963 19.2387 5.99698 18.9605 6.33526 18.8623C6.71173 18.7477 7.01727 18.8295 7.0882 18.8568ZM7.62836 17.9402C7.63927 17.9456 7.63927 17.9511 7.63381 17.962C7.58471 18.0275 7.34464 18.3166 6.91361 18.4258C6.49348 18.5294 6.25342 18.4367 6.19885 18.4039C6.18794 18.3985 6.18794 18.393 6.19885 18.3821C6.25887 18.3166 6.52622 18.0384 6.86996 17.9402C7.24643 17.8311 7.55743 17.9183 7.62836 17.9402ZM8.39767 17.1654C8.40858 17.1709 8.40858 17.1763 8.40313 17.1872C8.34856 17.2472 8.09213 17.5146 7.65564 17.591C7.23006 17.6619 7.00636 17.5473 6.9518 17.5146C6.94089 17.5091 6.94089 17.4982 6.9518 17.4928C7.01727 17.4328 7.30099 17.1763 7.65018 17.1054C8.03211 17.029 8.3322 17.1381 8.39767 17.1654ZM9.17789 16.4343C9.18881 16.4397 9.18881 16.4452 9.17789 16.4561C9.11788 16.5161 8.84507 16.7617 8.41404 16.7998C7.98846 16.838 7.77567 16.7125 7.72111 16.6744C7.7102 16.6689 7.71565 16.658 7.72111 16.6525C7.79204 16.598 8.09213 16.3634 8.43586 16.3197C8.82325 16.2706 9.11242 16.4015 9.17789 16.4343ZM8.89418 15.3867C8.88872 15.4085 8.89963 15.4194 8.916 15.414C9.01421 15.4085 9.32521 15.3813 9.64166 15.1685C9.96903 14.9502 10.0891 14.6774 10.1163 14.6065C10.1218 14.5956 10.1163 14.5901 10.1 14.5847C10.0072 14.5792 9.64712 14.5628 9.3143 14.8029C8.99784 15.0375 8.916 15.2994 8.89418 15.3867ZM3.19799 23.3854C3.18708 23.3799 3.18162 23.3854 3.18162 23.3963C3.17071 23.4781 3.12706 23.8437 3.3453 24.2202C3.55809 24.5857 3.78725 24.6894 3.84727 24.7112C3.85818 24.7167 3.86364 24.7112 3.86364 24.6948C3.89092 24.5639 3.94548 24.3238 3.71632 23.9201C3.52536 23.5818 3.26346 23.4181 3.19799 23.3854ZM3.42715 22.1196C3.41623 22.1141 3.41078 22.1141 3.41078 22.125C3.38895 22.2069 3.31802 22.567 3.50353 22.9598C3.68358 23.3472 3.90183 23.4672 3.95639 23.489C3.9673 23.4945 3.97276 23.489 3.97276 23.4781C4.01095 23.3526 4.08188 23.118 3.89637 22.6925C3.73815 22.3433 3.48716 22.1578 3.42715 22.1196ZM3.84181 20.941C3.83636 20.9356 3.82544 20.9356 3.82544 20.9465C3.79816 21.0229 3.67813 21.3612 3.80907 21.7704C3.93457 22.1687 4.13099 22.3105 4.18555 22.3433C4.19646 22.3487 4.20192 22.3433 4.20737 22.3323C4.26193 22.2123 4.36014 21.9941 4.2292 21.5576C4.11462 21.2029 3.89637 20.9901 3.84181 20.941ZM4.31104 19.7625C4.30558 19.7571 4.29467 19.7571 4.29467 19.768C4.26193 19.8444 4.12007 20.1826 4.21283 20.6028C4.30558 21.0174 4.49109 21.1757 4.54019 21.2138C4.55111 21.2193 4.55656 21.2138 4.56202 21.2029C4.62204 21.0884 4.74207 20.8701 4.64386 20.4173C4.56202 20.0408 4.36014 19.8116 4.31104 19.7625ZM4.92758 18.7368C4.92212 18.7259 4.91667 18.7313 4.90575 18.7368C4.86211 18.8077 4.67114 19.1187 4.70388 19.5497C4.73661 19.9698 4.89484 20.1554 4.93849 20.199C4.94395 20.2045 4.9494 20.2045 4.96032 20.1935C5.0367 20.0844 5.18947 19.8935 5.16219 19.4297C5.13491 19.0532 4.96577 18.7968 4.92758 18.7368ZM5.54412 17.7328C5.53866 17.7219 5.53321 17.7219 5.5223 17.7328C5.47319 17.7983 5.27131 18.1039 5.28223 18.5403C5.29314 18.9605 5.44591 19.1569 5.48956 19.2005C5.49501 19.206 5.50047 19.206 5.51138 19.1951C5.59323 19.0914 5.75145 18.9059 5.746 18.4421C5.74054 18.0602 5.58777 17.7929 5.54412 17.7328ZM6.19885 16.7453C6.1934 16.7344 6.18794 16.7344 6.17703 16.7453C6.12792 16.8108 5.90968 17.1108 5.90968 17.5419C5.90968 17.962 6.05154 18.1639 6.09519 18.2075C6.10064 18.213 6.1061 18.213 6.11701 18.2021C6.20431 18.1039 6.36799 17.9183 6.37345 17.4546C6.38436 17.0781 6.23705 16.8053 6.19885 16.7453ZM7.0009 15.8505C6.99545 15.8396 6.98999 15.8396 6.97908 15.8505C6.92452 15.9105 6.67899 16.1942 6.6408 16.6307C6.60261 17.0563 6.7281 17.2691 6.76629 17.3182C6.77175 17.3291 6.7772 17.3236 6.78812 17.3127C6.88633 17.22 7.06638 17.0508 7.11548 16.5871C7.15368 16.1942 7.03364 15.916 7.0009 15.8505ZM7.78113 15.0648C7.77567 15.0539 7.77022 15.0539 7.7593 15.0648C7.69929 15.1248 7.45376 15.4031 7.41011 15.8396C7.36646 16.2651 7.49195 16.4779 7.52469 16.5325C7.53015 16.5434 7.5356 16.538 7.54651 16.5325C7.64473 16.4397 7.82478 16.2761 7.88479 15.8123C7.9339 15.414 7.81387 15.1303 7.78113 15.0648ZM8.75777 14.4319C8.75777 14.421 8.74686 14.421 8.74141 14.4264C8.67048 14.4755 8.37584 14.6992 8.2449 15.1139C8.11941 15.5231 8.19579 15.7577 8.22307 15.8123C8.22853 15.8232 8.23399 15.8232 8.2449 15.8123C8.35948 15.7414 8.57227 15.6159 8.71412 15.1685C8.83962 14.8084 8.7796 14.5028 8.75777 14.4319ZM20.7994 15.7141C20.7885 15.7195 20.7885 15.725 20.7994 15.7359C20.8594 15.7959 21.1322 16.0414 21.5633 16.0851C21.9889 16.1287 22.2016 15.9978 22.2562 15.9596C22.2671 15.9541 22.2617 15.9432 22.2562 15.9378C22.1853 15.8832 21.8852 15.6486 21.5415 15.605C21.1541 15.5559 20.8649 15.6813 20.7994 15.7141ZM25.4644 25.666C25.4535 25.6606 25.448 25.666 25.448 25.6769C25.4371 25.7642 25.3989 26.1462 25.6335 26.539C25.8627 26.9209 26.1082 27.0246 26.1737 27.0464C26.1846 27.0519 26.1901 27.0464 26.1901 27.0301C26.1955 26.9373 26.201 26.539 26.0209 26.2171C25.8245 25.8625 25.5353 25.6988 25.4644 25.666ZM27.3959 25.9989C27.4068 25.9989 27.4122 26.0043 27.4122 26.0152C27.4013 26.1025 27.3304 26.479 27.003 26.79C26.6811 27.0955 26.4247 27.1283 26.3592 27.1283C26.3483 27.1283 26.3483 27.1228 26.3483 27.1065C26.3592 26.97 26.3756 26.7136 26.7248 26.3753C27.0085 26.0971 27.3195 26.0152 27.3959 25.9989ZM27.4941 24.7549C27.505 24.7494 27.5105 24.7549 27.5105 24.7658C27.505 24.8476 27.4668 25.2241 27.1722 25.5515C26.883 25.8734 26.632 25.9279 26.572 25.9334C26.5611 25.9334 26.5611 25.9279 26.5611 25.917C26.5611 25.7806 26.5611 25.5296 26.8721 25.175C27.1231 24.8804 27.4177 24.7767 27.4941 24.7549ZM25.5353 24.6348C25.5244 24.6294 25.519 24.6348 25.519 24.6457C25.5135 24.733 25.519 25.1095 25.7918 25.4696C26.0537 25.8188 26.3046 25.8952 26.3701 25.9061C26.381 25.9061 26.3865 25.9007 26.3865 25.8897C26.381 25.797 26.3483 25.4096 26.141 25.115C25.9009 24.7876 25.6063 24.6621 25.5353 24.6348ZM25.5735 23.4945C25.5626 23.489 25.5572 23.4945 25.5572 23.5054C25.5626 23.5873 25.5899 23.9528 25.8736 24.2856C26.1519 24.6075 26.3974 24.6621 26.4629 24.673C26.4738 24.673 26.4792 24.6676 26.4792 24.6567C26.4683 24.5694 26.4083 24.1929 26.1901 23.9255C25.9445 23.6254 25.6445 23.5163 25.5735 23.4945ZM25.3771 22.4469C25.3662 22.4469 25.3607 22.4524 25.3607 22.4633C25.3717 22.5451 25.448 22.8998 25.7699 23.189C26.0864 23.4672 26.3319 23.4945 26.3974 23.4945C26.4083 23.4945 26.4138 23.489 26.4083 23.4727C26.3865 23.3854 26.2828 23.0307 26.0318 22.7907C25.7536 22.5288 25.4535 22.4633 25.3771 22.4469ZM25.0225 21.4703C25.0115 21.4703 25.0061 21.4757 25.0115 21.4867C25.0334 21.563 25.1534 21.9068 25.5026 22.1578C25.8463 22.3978 26.0864 22.3978 26.1519 22.3924C26.1628 22.3924 26.1628 22.3815 26.1628 22.3705C26.1301 22.2887 25.9827 21.945 25.7099 21.7376C25.3989 21.5085 25.0934 21.4757 25.0225 21.4703ZM24.5314 20.5264C24.5205 20.5264 24.515 20.5318 24.5205 20.5427C24.5587 20.6137 24.7278 20.9356 25.1207 21.1211C25.5026 21.3011 25.7481 21.252 25.8081 21.2357C25.8191 21.2302 25.8191 21.2248 25.8136 21.2138C25.7699 21.1375 25.5626 20.8265 25.2571 20.6682C24.9133 20.4936 24.6023 20.5155 24.5314 20.5264ZM24.0731 19.7243C24.0622 19.7243 24.0622 19.7352 24.0676 19.7407C24.1113 19.8116 24.3132 20.1226 24.7278 20.2699C25.1316 20.4173 25.3771 20.3463 25.4371 20.3245C25.448 20.319 25.448 20.3136 25.4426 20.3027C25.388 20.2317 25.1534 19.9262 24.826 19.7953C24.4605 19.6589 24.1495 19.708 24.0731 19.7243ZM23.5057 18.8568C23.4947 18.8623 23.4947 18.8677 23.5002 18.8786C23.5493 18.9441 23.7839 19.2333 24.215 19.3424C24.6296 19.4461 24.8642 19.3533 24.9242 19.326C24.9352 19.3206 24.9352 19.3151 24.9242 19.3042C24.8642 19.2387 24.5969 18.9605 24.2586 18.8623C23.8821 18.7477 23.5766 18.8295 23.5057 18.8568ZM22.9655 17.9402C22.9546 17.9456 22.9546 17.9511 22.96 17.962C23.0092 18.0275 23.2492 18.3166 23.6803 18.4258C24.1004 18.5294 24.3404 18.4367 24.395 18.4039C24.4059 18.3985 24.4059 18.393 24.395 18.3821C24.335 18.3166 24.0676 18.0384 23.7239 17.9402C23.3529 17.8311 23.0419 17.9183 22.9655 17.9402ZM22.1962 17.1654C22.1853 17.1709 22.1853 17.1763 22.1907 17.1872C22.2453 17.2472 22.5017 17.5146 22.9382 17.591C23.3638 17.6619 23.5875 17.5473 23.6421 17.5146C23.653 17.5091 23.653 17.4982 23.6421 17.4928C23.5766 17.4328 23.2929 17.1763 22.9437 17.1054C22.5672 17.029 22.2671 17.1381 22.1962 17.1654ZM21.416 16.4343C21.4051 16.4397 21.4051 16.4452 21.416 16.4561C21.476 16.5161 21.7488 16.7617 22.1798 16.7998C22.6054 16.838 22.8182 16.7125 22.8727 16.6744C22.8837 16.6689 22.8782 16.658 22.8727 16.6525C22.8018 16.598 22.5017 16.3634 22.158 16.3197C21.7706 16.2706 21.4869 16.4015 21.416 16.4343ZM21.6997 15.3867C21.7051 15.4085 21.6942 15.4194 21.6779 15.414C21.5797 15.4085 21.2687 15.3813 20.9522 15.1685C20.6248 14.9502 20.5048 14.6774 20.4775 14.6065C20.4721 14.5956 20.4775 14.5901 20.4939 14.5847C20.5866 14.5792 20.9467 14.5628 21.2796 14.8029C21.596 15.0375 21.6833 15.2994 21.6997 15.3867ZM27.4013 23.3854C27.4122 23.3799 27.4177 23.3854 27.4177 23.3963C27.4286 23.4781 27.4723 23.8437 27.254 24.2202C27.0412 24.5857 26.8121 24.6894 26.7521 24.7112C26.7411 24.7167 26.7357 24.7112 26.7357 24.6948C26.7084 24.5639 26.6538 24.3238 26.883 23.9201C27.0685 23.5818 27.3359 23.4181 27.4013 23.3854ZM27.1722 22.1196C27.1831 22.1141 27.1885 22.1141 27.1885 22.125C27.2104 22.2069 27.2813 22.567 27.0958 22.9598C26.9157 23.3472 26.6975 23.4672 26.6429 23.489C26.632 23.4945 26.6266 23.489 26.6266 23.4781C26.5884 23.3526 26.5174 23.118 26.7029 22.6925C26.8612 22.3433 27.1122 22.1578 27.1722 22.1196ZM26.7575 20.941C26.763 20.9356 26.7739 20.9356 26.7739 20.9465C26.8012 21.0229 26.9212 21.3612 26.7902 21.7704C26.6648 22.1687 26.4683 22.3105 26.4138 22.3433C26.4029 22.3487 26.3974 22.3433 26.3919 22.3323C26.3374 22.2123 26.2392 21.9941 26.3701 21.5576C26.4792 21.2029 26.6975 20.9901 26.7575 20.941ZM26.2883 19.7625C26.2937 19.7571 26.3046 19.7571 26.3046 19.768C26.3374 19.8444 26.4792 20.1826 26.3865 20.6028C26.2937 21.0174 26.1082 21.1757 26.0591 21.2138C26.0482 21.2193 26.0428 21.2138 26.0373 21.2029C25.9773 21.0884 25.8572 20.8701 25.9555 20.4173C26.0318 20.0408 26.2337 19.8116 26.2883 19.7625ZM25.6717 18.7368C25.6772 18.7259 25.6826 18.7313 25.6936 18.7368C25.7372 18.8077 25.9282 19.1187 25.8954 19.5497C25.8627 19.9698 25.7045 20.1554 25.6608 20.199C25.6554 20.2045 25.6499 20.2045 25.639 20.1935C25.5626 20.0844 25.4098 19.8935 25.4371 19.4297C25.4644 19.0532 25.6281 18.7968 25.6717 18.7368ZM25.0497 17.7328C25.0552 17.7219 25.0607 17.7219 25.0716 17.7328C25.1207 17.7983 25.3225 18.1039 25.3116 18.5403C25.3007 18.9605 25.148 19.1569 25.1043 19.2005C25.0988 19.206 25.0934 19.206 25.0825 19.1951C25.0006 19.0914 24.8424 18.9059 24.8479 18.4421C24.8588 18.0602 25.0115 17.7929 25.0497 17.7328ZM24.395 16.7453C24.4005 16.7344 24.4059 16.7344 24.4168 16.7453C24.4659 16.8108 24.6842 17.1108 24.6842 17.5419C24.6842 17.962 24.5423 18.1639 24.4987 18.2075C24.4932 18.213 24.4878 18.213 24.4768 18.2021C24.3895 18.1039 24.2259 17.9183 24.2204 17.4546C24.215 17.0781 24.3568 16.8053 24.395 16.7453ZM23.5984 15.8505C23.6039 15.8396 23.6093 15.8396 23.6202 15.8505C23.6748 15.9105 23.9203 16.1942 23.9585 16.6307C23.9967 17.0563 23.8712 17.2691 23.833 17.3182C23.8276 17.3291 23.8221 17.3236 23.8112 17.3127C23.713 17.22 23.5329 17.0508 23.4838 16.5871C23.4402 16.1942 23.5657 15.916 23.5984 15.8505ZM22.8127 15.0648C22.8182 15.0539 22.8236 15.0539 22.8346 15.0648C22.8946 15.1248 23.1401 15.4031 23.1837 15.8396C23.2274 16.2651 23.1019 16.4779 23.0692 16.5325C23.0637 16.5434 23.0583 16.538 23.0473 16.5325C22.9491 16.4397 22.7691 16.2761 22.7091 15.8123C22.6654 15.414 22.78 15.1303 22.8127 15.0648ZM21.8361 14.4319C21.8361 14.421 21.847 14.421 21.8525 14.4264C21.9234 14.4755 22.218 14.6992 22.349 15.1139C22.4745 15.5231 22.3981 15.7577 22.3708 15.8123C22.3653 15.8232 22.3599 15.8232 22.349 15.8123C22.2344 15.7414 22.0216 15.6159 21.8797 15.1685C21.7597 14.8084 21.8143 14.5028 21.8361 14.4319Z" fill="#B48B13"/>
    <path d="M15.2777 0.13147L15.7197 1.55006L17.2474 1.56643L16.0961 2.52671L16.4944 3.88528L15.2777 3.07777L14.0556 3.88528L14.4539 2.52671L13.3026 1.56643L14.8303 1.55006L15.2777 0.13147Z" fill="#D59F0F"/>
  </svg>