<svg xmlns="http://www.w3.org/2000/svg" width="30" height="30" viewBox="0 0 30 30" fill="none">
    <path fill-rule="evenodd" clip-rule="evenodd" d="M8.75 2.5C8.05964 2.5 7.5 3.05964 7.5 3.75V5H6.25C4.17893 5 2.5 6.67893 2.5 8.75V23.75C2.5 25.8211 4.17893 27.5 6.25 27.5H23.75C25.8211 27.5 27.5 25.8211 27.5 23.75V8.75C27.5 6.67893 25.8211 5 23.75 5H22.5V3.75C22.5 3.05964 21.9404 2.5 21.25 2.5C20.5596 2.5 20 3.05964 20 3.75V5H10V3.75C10 3.05964 9.44036 2.5 8.75 2.5ZM11.25 16.25C11.25 15.5596 11.8096 15 12.5 15H21.25C21.9404 15 22.5 15.5596 22.5 16.25C22.5 16.9404 21.9404 17.5 21.25 17.5H12.5C11.8096 17.5 11.25 16.9404 11.25 16.25ZM7.5 21.25C7.5 20.5596 8.05964 20 8.75 20H16.25C16.9404 20 17.5 20.5596 17.5 21.25C17.5 21.9404 16.9404 22.5 16.25 22.5H8.75C8.05964 22.5 7.5 21.9404 7.5 21.25Z" fill="white"/>
  </svg>