<svg xmlns="http://www.w3.org/2000/svg" width="16" height="16" viewBox="0 0 16 16" fill="none">
    <path fill-rule="evenodd" clip-rule="evenodd" d="M7.9987 13.334C10.9442 13.334 13.332 10.9462 13.332 8.00065C13.332 5.05513 10.9442 2.66732 7.9987 2.66732C5.05318 2.66732 2.66536 5.05513 2.66536 8.00065C2.66536 10.9462 5.05318 13.334 7.9987 13.334ZM7.9987 14.6673C11.6806 14.6673 14.6654 11.6825 14.6654 8.00065C14.6654 4.31875 11.6806 1.33398 7.9987 1.33398C4.3168 1.33398 1.33203 4.31875 1.33203 8.00065C1.33203 11.6825 4.3168 14.6673 7.9987 14.6673Z" fill="#777E91"/>
    <path fill-rule="evenodd" clip-rule="evenodd" d="M7.9987 4C8.36689 4 8.66536 4.29848 8.66536 4.66667V7.72386L10.1368 9.19526C10.3971 9.45561 10.3971 9.87772 10.1368 10.1381C9.87642 10.3984 9.45431 10.3984 9.19396 10.1381L7.52729 8.4714C7.40227 8.34638 7.33203 8.17681 7.33203 8V4.66667C7.33203 4.29848 7.63051 4 7.9987 4Z" fill="#777E91"/>
  </svg>