<svg xmlns="http://www.w3.org/2000/svg" width="34" height="34" viewBox="0 0 34 34" fill="none">
    <path fill-rule="evenodd" clip-rule="evenodd" d="M16.9987 31.1673C24.8227 31.1673 31.1654 24.8247 31.1654 17.0007C31.1654 9.17662 24.8227 2.83398 16.9987 2.83398C9.17466 2.83398 2.83203 9.17662 2.83203 17.0007C2.83203 24.8247 9.17466 31.1673 16.9987 31.1673ZM18.4154 9.91732C18.4154 9.13491 17.7811 8.50065 16.9987 8.50065C16.2163 8.50065 15.582 9.13491 15.582 9.91732V17.0007C15.582 17.3764 15.7313 17.7367 15.997 18.0024L19.5386 21.5441C20.0919 22.0973 20.9889 22.0973 21.5421 21.5441C22.0953 20.9908 22.0953 20.0938 21.5421 19.5406L18.4154 16.4138V9.91732Z" fill="white"/>
  </svg>