<svg xmlns="http://www.w3.org/2000/svg" width="140" height="36" viewBox="0 0 140 36" fill="none">
    <g clip-path="url(#clip0_187_4320)">
      <path d="M40.6606 15.7881V22.9466H42.4454C42.9009 22.9398 43.3505 22.8418 43.7674 22.6582C44.1843 22.4747 44.5602 22.2094 44.8728 21.8781C45.5145 21.1988 45.8656 20.2958 45.8513 19.3615C45.8649 18.8974 45.7867 18.4352 45.6211 18.0014C45.4555 17.5677 45.2059 17.1709 44.8865 16.8339C44.5726 16.5021 44.1941 16.2381 43.7743 16.0581C43.3544 15.878 42.9022 15.7859 42.4454 15.7872H40.6615L40.6606 15.7881ZM42.4454 13.5437C45.7721 13.5437 48.2887 16.1213 48.2887 19.3615C48.2887 22.6016 45.7721 25.1938 42.4454 25.1938H38.509C38.4714 25.1933 38.4344 25.1855 38.3999 25.1707C38.3654 25.1558 38.3341 25.1344 38.3079 25.1075C38.2817 25.0806 38.2611 25.0489 38.2472 25.014C38.2333 24.9792 38.2263 24.9419 38.2268 24.9044V13.8449C38.2268 13.6848 38.3533 13.5546 38.509 13.5546L42.4454 13.5437ZM56.8634 23.196C58.3742 23.2005 59.7386 22.2713 60.3202 20.8414C60.6051 20.1428 60.6812 19.3765 60.5394 18.6355C60.3975 17.8945 60.0438 17.2105 59.5211 16.6665C59.0075 16.1314 58.3436 15.7647 57.6172 15.6148C56.8908 15.465 56.136 15.5391 55.4526 15.8273C54.0564 16.4171 53.1444 17.8124 53.1417 19.3615C53.1417 21.473 54.8055 23.186 56.8643 23.196H56.8634ZM56.8643 13.2797C60.3657 13.2797 63.0425 16.0393 63.0425 19.3615C63.0425 22.6836 60.3657 25.4432 56.8634 25.4432C53.362 25.4432 50.7079 22.6972 50.7079 19.3615C50.7079 16.0257 53.3847 13.2797 56.8634 13.2797H56.8643ZM71.548 23.196C73.6077 23.1905 75.2742 21.4758 75.2724 19.3642C75.2697 17.2508 73.5995 15.5397 71.5407 15.5388C69.4801 15.5388 67.809 17.249 67.8063 19.3615C67.8063 20.379 68.2004 21.3547 68.9021 22.0737C69.2456 22.4281 69.6566 22.71 70.1109 22.9027C70.5652 23.0955 71.0536 23.1952 71.5471 23.196H71.548ZM71.5471 13.2797C75.0376 13.2797 77.7144 16.0257 77.7144 19.3615C77.7144 22.6972 75.0266 25.4432 71.5471 25.4432C68.0684 25.4432 65.3689 22.6972 65.3689 19.3615C65.3689 16.0257 68.0457 13.2797 71.5471 13.2797ZM85.8785 15.7881H83.3619V18.8691H85.8785C86.0774 18.8779 86.2759 18.8458 86.4619 18.7749C86.6479 18.704 86.8173 18.5957 86.9598 18.4567C87.2511 18.1746 87.4167 17.7832 87.4204 17.3718C87.4277 17.1631 87.3928 16.9551 87.3177 16.7602C87.2426 16.5653 87.1289 16.3876 86.9835 16.2378C86.8407 16.0903 86.6686 15.9743 86.4783 15.8974C86.288 15.8204 86.0837 15.7841 85.8785 15.7909V15.7881ZM80.9272 13.8449C80.9272 13.6848 81.0547 13.5546 81.2103 13.5546H85.9486C88.2076 13.5546 89.8423 15.2521 89.8423 17.3837C89.8596 18.8254 89.0723 20.1497 87.8154 20.795L90.0007 24.7569C90.0309 24.8025 90.0479 24.8555 90.0499 24.9101C90.0518 24.9647 90.0386 25.0188 90.0116 25.0664C89.9853 25.1132 89.9461 25.1514 89.8986 25.1766C89.8512 25.2018 89.7975 25.2128 89.744 25.2084H87.8263C87.7731 25.2091 87.7208 25.1948 87.6754 25.1671C87.63 25.1394 87.5933 25.0994 87.5696 25.0518L85.4635 21.1308H83.3528V24.8953C83.3534 24.9329 83.3466 24.9702 83.3327 25.0052C83.3189 25.0402 83.2982 25.072 83.272 25.099C83.2458 25.126 83.2145 25.1475 83.18 25.1624C83.1454 25.1772 83.1083 25.1851 83.0707 25.1856H81.223C81.1854 25.1851 81.1483 25.1772 81.1137 25.1624C81.0792 25.1475 81.0479 25.126 81.0217 25.099C80.9955 25.072 80.9748 25.0402 80.961 25.0052C80.9471 24.9702 80.9403 24.9329 80.9409 24.8953L80.9281 13.8459L80.9272 13.8449ZM96.188 15.8428V23.0021H97.9719C98.4273 22.9959 98.8768 22.8985 99.2939 22.7156C99.711 22.5327 100.087 22.268 100.4 21.9372C101.042 21.2587 101.394 20.3564 101.38 19.4224C101.395 18.9578 101.318 18.4948 101.152 18.0603C100.987 17.6257 100.738 17.2281 100.418 16.8904C100.104 16.558 99.7247 16.2936 99.3041 16.1136C98.8835 15.9335 98.4304 15.8417 97.9728 15.8437L96.188 15.8428ZM97.9719 13.5956C101.299 13.5956 103.815 16.1759 103.815 19.4224C103.815 22.669 101.299 25.2493 97.9719 25.2493H94.0473C94.0097 25.2488 93.9725 25.2409 93.938 25.2261C93.9034 25.2112 93.8721 25.1897 93.8459 25.1627C93.8197 25.1357 93.7991 25.1039 93.7852 25.0689C93.7713 25.0339 93.7645 24.9966 93.7651 24.959V13.9005C93.7651 13.7394 93.8916 13.6092 94.0473 13.6092L97.9728 13.5956H97.9719ZM111.238 16.4426L109.858 20.2707H112.616L111.238 16.4426ZM109.048 22.4342L108.144 24.9826C108.126 25.0426 108.088 25.0948 108.037 25.1311C107.986 25.1673 107.924 25.1856 107.862 25.1829H105.901C105.851 25.1875 105.801 25.1787 105.756 25.1572C105.71 25.1357 105.672 25.1025 105.644 25.0609C105.615 25.0189 105.598 24.9701 105.593 24.9194C105.589 24.8687 105.598 24.8178 105.619 24.7715L109.855 13.723C109.875 13.6647 109.913 13.6145 109.964 13.58C110.015 13.5455 110.076 13.5286 110.137 13.5318H112.331C112.392 13.5284 112.453 13.5452 112.504 13.5797C112.556 13.6142 112.594 13.6646 112.614 13.723L116.85 24.7715C116.871 24.8178 116.879 24.8688 116.875 24.9195C116.87 24.9702 116.853 25.0189 116.824 25.0609C116.796 25.1023 116.757 25.1354 116.712 25.1567C116.667 25.178 116.616 25.1867 116.567 25.182H114.607C114.544 25.1846 114.483 25.1664 114.432 25.1302C114.381 25.0939 114.343 25.0417 114.325 24.9817L113.421 22.4333H109.048V22.4342ZM119.122 16.691C119.122 14.8616 120.664 13.2797 123.099 13.2797C124.41 13.2504 125.679 13.7409 126.63 14.6441C126.659 14.6715 126.682 14.7045 126.698 14.7411C126.714 14.7777 126.722 14.8172 126.722 14.857C126.722 14.8969 126.714 14.9364 126.698 14.973C126.682 15.0096 126.659 15.0426 126.63 15.07L125.544 16.1759C125.518 16.2027 125.487 16.2241 125.453 16.2387C125.419 16.2533 125.382 16.2608 125.344 16.2608C125.307 16.2608 125.27 16.2533 125.235 16.2387C125.201 16.2241 125.17 16.2027 125.144 16.1759C124.633 15.6965 123.961 15.4249 123.26 15.4141C122.286 15.4141 121.566 15.9938 121.566 16.6628C121.566 18.8254 127.321 17.5775 127.321 21.7388C127.318 23.8477 125.765 25.4432 123.018 25.4432C122.255 25.451 121.498 25.3053 120.793 25.0148C120.088 24.7243 119.448 24.2949 118.912 23.7521C118.883 23.7247 118.86 23.6917 118.844 23.6551C118.828 23.6184 118.82 23.579 118.82 23.5391C118.82 23.4992 118.828 23.4598 118.844 23.4232C118.86 23.3865 118.883 23.3535 118.912 23.3261L119.962 22.2485C119.989 22.2203 120.02 22.1978 120.055 22.1825C120.091 22.1671 120.129 22.1592 120.167 22.1592C120.206 22.1592 120.244 22.1671 120.279 22.1825C120.314 22.1978 120.346 22.2203 120.372 22.2485C121.033 22.9037 121.923 23.2759 122.854 23.2861C124.071 23.2861 124.873 22.6198 124.873 21.7852C124.873 19.6218 119.121 20.8705 119.121 16.7083L119.122 16.691ZM137.757 13.8304V18.2028H132.886V13.8304C132.886 13.7928 132.879 13.7556 132.865 13.7207C132.852 13.6859 132.831 13.6541 132.805 13.6272C132.779 13.6003 132.747 13.5789 132.713 13.5641C132.678 13.5493 132.641 13.5414 132.604 13.5409H130.756C130.719 13.5414 130.681 13.5493 130.647 13.5641C130.612 13.5789 130.581 13.6003 130.555 13.6272C130.529 13.6541 130.508 13.6859 130.494 13.7207C130.48 13.7556 130.473 13.7928 130.474 13.8304V24.8771C130.474 25.0372 130.601 25.1674 130.756 25.1674H132.604C132.758 25.1674 132.886 25.0372 132.886 24.8771V20.4354H137.753V24.8771C137.753 25.0372 137.881 25.1674 138.036 25.1674H139.883C140.039 25.1674 140.165 25.0372 140.165 24.8771V13.8304C140.166 13.7928 140.159 13.7556 140.145 13.7207C140.131 13.6859 140.11 13.6541 140.084 13.6272C140.058 13.6003 140.027 13.5789 139.992 13.5641C139.958 13.5493 139.921 13.5414 139.883 13.5409H138.036C137.96 13.5429 137.889 13.5743 137.837 13.6285C137.785 13.6827 137.756 13.7552 137.757 13.8304ZM27.8555 15.0154C26.574 12.6399 24.0665 11.1609 21.3396 11.17H0.70798C0.568649 11.1705 0.432565 11.2121 0.316683 11.2894C0.200802 11.3668 0.110247 11.4766 0.0563014 11.605C0.00314457 11.7327 -0.0106998 11.8733 0.0165415 12.0088C0.0437827 12.1444 0.110869 12.2687 0.209209 12.3659L4.70361 16.8257C5.10044 17.2207 5.64108 17.4419 6.20356 17.4419H20.748C21.7847 17.431 22.632 18.252 22.643 19.2741C22.6539 20.2962 21.8229 21.1335 20.7862 21.1436H10.7589C10.6195 21.1436 10.4832 21.1847 10.367 21.2618C10.2507 21.3388 10.1598 21.4484 10.1054 21.5768C10.0518 21.7046 10.0376 21.8455 10.0647 21.9814C10.0917 22.1174 10.1589 22.2421 10.2574 22.3395L14.7546 26.803C15.1539 27.1978 15.693 27.4189 16.2545 27.4182H20.7899C26.6905 27.4182 31.1521 21.1927 27.8555 15.0127" fill="#B5BFC6"/>
    </g>
    <defs>
      <clipPath id="clip0_187_4320">
        <rect width="140" height="35.7447" fill="white"/>
      </clipPath>
    </defs>
  </svg>