<svg xmlns="http://www.w3.org/2000/svg" width="15" height="20" viewBox="0 0 15 20" fill="none">
    <path fill-rule="evenodd" clip-rule="evenodd" d="M9.09084 2.33238L12.4751 0.0765215C12.6145 -0.0166983 12.7941 -0.0253365 12.9419 0.053846C13.0897 0.132848 13.1818 0.2869 13.1818 0.454626V2.72739H14.5456C14.7965 2.72739 15 2.93112 15 3.18199V19.5454C15 19.7965 14.7965 20 14.5456 20H2.27277C1.01826 20 0 18.9818 0 17.7273V5.00018C0 3.90148 0.781408 2.98384 1.81819 2.77293V1.36381C1.81819 0.610641 2.42863 0.000201163 3.18179 0.000201163H7.72733C8.4805 0.000201163 9.09094 0.610641 9.09094 1.36381L9.09084 2.33238ZM2.27281 16.3637C1.52002 16.3637 0.909209 16.9747 0.909209 17.7273C0.909209 18.4801 1.52002 19.0911 2.27281 19.0911H14.0909V16.3638L2.27281 16.3637ZM13.1819 3.63665V5.90923C13.1819 6.07696 13.0898 6.23119 12.942 6.31019C12.7943 6.38938 12.6147 6.38074 12.4752 6.28752L9.09098 4.03166V5.0002C9.09098 5.75337 8.48054 6.36381 7.72738 6.36381H3.18184C2.42867 6.36381 1.81823 5.75337 1.81823 5.0002V3.71437C1.28879 3.90153 0.909255 4.40704 0.909255 5.0002V15.9098C1.1738 15.7111 1.48242 15.5684 1.81823 15.5002V7.72757C1.81823 7.47652 2.02196 7.27298 2.27282 7.27298C2.52369 7.27298 2.72741 7.47652 2.72741 7.72757V15.455H14.0913V3.63694L13.1819 3.63665ZM4.09123 13.6363H10.455C10.7059 13.6363 10.9094 13.4328 10.9094 13.1819C10.9094 12.9309 10.7059 12.7273 10.455 12.7273H4.09123C3.84036 12.7273 3.63664 12.9309 3.63664 13.1819C3.63664 13.4328 3.84036 13.6363 4.09123 13.6363ZM4.09123 11.8181H10.455C10.7059 11.8181 10.9094 11.6146 10.9094 11.3637C10.9094 11.1127 10.7059 10.9091 10.455 10.9091H4.09123C3.84036 10.9091 3.63664 11.1127 3.63664 11.3637C3.63664 11.6146 3.84036 11.8181 4.09123 11.8181ZM4.09123 9.99996H10.455C10.7059 9.99996 10.9094 9.79642 10.9094 9.54555C10.9094 9.2945 10.7059 9.09096 10.455 9.09096H4.09123C3.84036 9.09096 3.63664 9.2945 3.63664 9.54555C3.63664 9.79642 3.84036 9.99996 4.09123 9.99996ZM4.09123 8.18177H8.63677C8.88764 8.18177 9.09118 7.97823 9.09118 7.72736C9.09118 7.47631 8.88764 7.27277 8.63677 7.27277H4.09123C3.84036 7.27277 3.63664 7.47631 3.63664 7.72736C3.63664 7.97823 3.84036 8.18177 4.09123 8.18177ZM2.72763 1.36374V5.00012C2.72763 5.25099 2.93117 5.45471 3.18204 5.45471H7.72757C7.97844 5.45471 8.18217 5.25099 8.18217 5.00012V1.36374C8.18217 1.11287 7.97844 0.909151 7.72757 0.909151H3.18204C2.93117 0.909151 2.72763 1.11287 2.72763 1.36374ZM9.45628 3.18193L12.2731 5.05969V1.30417L9.45628 3.18193ZM6.81854 2.72734C7.06941 2.72734 7.27295 2.93106 7.27295 3.18193C7.27295 3.4328 7.06941 3.63652 6.81854 3.63652C6.56749 3.63652 6.36395 3.4328 6.36395 3.18193C6.36395 2.93106 6.56749 2.72734 6.81854 2.72734ZM4.09119 3.6365H5.00035C5.25122 3.6365 5.45476 3.43278 5.45476 3.18191C5.45476 2.93104 5.25122 2.72732 5.00035 2.72732H4.09119C3.84032 2.72732 3.6366 2.93104 3.6366 3.18191C3.6366 3.43278 3.84032 3.6365 4.09119 3.6365Z" fill="white"/>
  </svg>