<svg xmlns="http://www.w3.org/2000/svg" width="140" height="35" viewBox="0 0 140 35" fill="none">
    <path d="M1.99121 16.1384C3.66532 15.8505 5.1969 15.1583 6.64955 14.2945C10.9701 11.7261 14.0973 7.4079 15.3081 2.52924C15.5302 3.25918 16.287 5.26318 16.5671 5.8499C17.5942 8.00256 18.7311 10.0393 20.6773 11.5021C28.9123 17.6915 37.1766 8.49067 39.0359 1.00098C39.1181 1.59811 40.2584 5.4832 40.5349 6.12246C41.9665 9.43667 44.3709 12.9461 47.9859 14.071C55.4508 16.3936 60.9361 9.5665 62.6467 3.19724C62.6467 3.19724 62.9465 4.40588 63.1427 4.99558C63.4757 5.99659 63.8563 6.97628 64.3509 7.91038C65.7993 10.6473 68.0021 13.1666 70.9644 14.2757C77.9264 16.8823 85.8006 11.3916 86.9646 4.41529C86.9646 4.41529 87.1762 5.37566 87.3576 5.83008C87.8651 7.10066 88.5256 8.31426 89.2729 9.45946C91.0286 12.1528 93.4038 14.5824 96.381 15.8931C102.419 18.5513 113.461 13.682 113.109 5.99956C113.107 5.99906 113.564 7.07192 113.598 7.13337C114.017 7.87025 114.511 8.56897 115.007 9.25481C116.212 10.9184 117.508 12.4907 119.079 13.8232C124.693 18.5845 129.61 18.0845 136.1 15.9045" stroke="#D1E2FB" stroke-miterlimit="1.5" stroke-linecap="round" stroke-linejoin="round"/>
    <path d="M1 32.1108C2.62589 31.915 4.17289 31.3001 5.65502 30.6321C9.84799 28.7421 13.089 25.7158 16.0359 22.2737C16.0384 22.2707 17.1307 24.0686 17.2388 24.2187C18.2846 25.6712 19.6683 26.8927 21.2214 27.7812C27.1085 31.1474 34.6691 28.8139 37.5462 22.7821C37.5462 23.355 38.6012 24.8312 38.8257 25.0874C40.5785 27.0899 42.7078 28.9809 45.2361 29.9165C51.3432 32.1767 59.4147 29.1231 62.4569 23.3223C62.501 24.2876 63.5347 25.8575 63.6392 25.9873C65.283 28.0364 67.6373 29.6499 70.2117 30.2272C76.3366 31.6014 82.9586 28.5632 85.8486 22.9833C86.2927 24.3743 87.1931 25.7945 87.4448 26.0755C89.3229 28.1717 91.6569 29.8665 94.3517 30.7292C100.984 32.8531 110.074 28.969 112.714 24.293C112.609 24.683 112.813 25.5051 112.848 25.573C113.251 26.3436 113.803 27.024 114.405 27.6484C116.016 29.3209 117.985 30.6544 120.036 31.7262C126.091 34.8923 135.327 35.1242 139.174 28.3134" stroke="#D1E2FB" stroke-miterlimit="1.5" stroke-linecap="round" stroke-linejoin="round"/>
  </svg>