<svg xmlns="http://www.w3.org/2000/svg" viewBox="0 0 1440 320"><path fill="#fff" fill-opacity="1" d="M0,160L18.5,186.7C36.9,213,74,267,111,261.3C147.7,256,185,192,222,154.7C258.5,117,295,107,332,122.7C369.2,139,406,181,443,170.7C480,160,517,96,554,64C590.8,32,628,32,665,58.7C701.5,85,738,139,775,138.7C812.3,139,849,85,886,53.3C923.1,21,960,11,997,10.7C1033.8,11,1071,21,1108,64C1144.6,107,1182,181,1218,186.7C1255.4,192,1292,128,1329,85.3C1366.2,43,1403,21,1422,10.7L1440,0L1440,320L1421.5,320C1403.1,320,1366,320,1329,320C1292.3,320,1255,320,1218,320C1181.5,320,1145,320,1108,320C1070.8,320,1034,320,997,320C960,320,923,320,886,320C849.2,320,812,320,775,320C738.5,320,702,320,665,320C627.7,320,591,320,554,320C516.9,320,480,320,443,320C406.2,320,369,320,332,320C295.4,320,258,320,222,320C184.6,320,148,320,111,320C73.8,320,37,320,18,320L0,320Z"></path></svg>