<svg xmlns="http://www.w3.org/2000/svg" width="149" height="179" viewBox="0 0 149 179" fill="none">
    <g clip-path="url(#clip0_187_4533)">
      <path d="M144.652 84.6408C142.35 84.6974 140.079 84.1109 137.766 84.3179C137.401 84.3506 136.749 84.2279 136.679 84.0244C135.99 81.997 133.692 82.2403 132.402 80.93C131.26 79.7687 131.157 78.8496 131.708 77.6776C133.835 73.1373 135.706 68.4942 137.442 63.7948C137.899 62.5581 138.348 61.3115 138.683 60.0381C139.003 58.8174 140.052 58.4272 140.966 58.0897C141.959 57.7237 142.076 58.9252 142.603 59.4395C145.077 61.85 145.15 65.1152 145.875 68.1538C146.808 72.0727 147.648 76.0165 148.707 79.9013C149.588 83.1345 148.554 85.1594 144.652 84.6408Z" fill="#A6CF4A"/>
      <path d="M119.452 21.0904C119.524 22.7571 118.457 23.9184 116.587 24.1372C113.986 24.4417 111.387 24.7952 108.776 24.973C106.393 25.1356 105.142 23.1889 103.952 21.6652C103.134 20.6177 103.692 19.1138 104.535 17.8618C107.356 13.6726 109.45 9.09846 111.368 4.44112C111.702 3.6291 112.053 2.88251 113.102 2.747C114.241 2.60045 114.466 3.45837 114.991 4.13701C116.561 6.16442 116.9 8.60513 117.504 10.9633C118.356 14.2989 119.165 17.6456 119.452 21.0904Z" fill="#A6CF4A"/>
      <path d="M113.993 58.381C113.993 60.487 114.562 62.1385 112.585 63.0889C112.116 63.3144 111.701 63.6203 111.209 63.5345C108.998 63.1493 106.84 63.2731 104.82 64.2747C103.241 65.0572 102.354 64.4462 101.182 63.2927C98.9316 61.0775 98.8772 60.1861 100.293 57.4438C102.558 53.061 105.126 48.7971 106.533 44.0067C106.72 43.3032 106.978 42.6207 107.304 41.9701C108.009 40.6576 109.289 40.6338 110.265 41.7449C112.322 44.0875 112.555 47.0336 112.992 49.8851C113.454 52.8932 113.712 55.9318 113.993 58.381Z" fill="#A6CF4A"/>
      <path d="M115.513 136.066C113.278 135.812 111.486 134.593 109.92 133.122C109.353 132.589 109.414 131.506 109.827 130.671C111.214 127.866 111.757 124.754 113.204 121.921C113.887 120.583 114.173 118.72 114.675 117.113C115.028 115.981 115.595 114.729 116.955 114.626C118.315 114.522 119.028 115.764 119.6 116.732C121.064 119.205 121.554 122.048 122.133 124.811C122.765 127.835 123.172 130.906 123.616 133.967C123.794 135.189 122.974 135.962 123.094 137.07C123.157 137.66 122.409 137.746 121.698 137.546C119.658 136.974 117.578 136.548 115.513 136.066Z" fill="#A6CF4A"/>
      <path d="M84.6568 37.9309C84.6618 39.9042 83.6321 40.8258 81.471 40.4345C79.7011 40.1144 77.9408 40.2923 76.2136 40.3065C74.0795 40.3221 72.6774 39.3838 71.2305 38.1194C69.8963 36.9531 69.8291 35.6001 70.5934 34.2168C73.0249 29.82 75.0345 25.2029 76.5955 20.4272C77.2055 18.5617 78.4693 18.4482 79.786 19.925C80.6744 20.9088 81.3456 22.0688 81.7558 23.3293C83.2396 28.0794 84.2123 32.9743 84.6568 37.9309Z" fill="#A6CF4A"/>
      <path d="M49.4243 55.6382C47.9016 55.565 46.592 55.614 45.2685 55.3892C42.1178 54.8557 41.1187 53.9192 41.633 50.8155C42.2903 46.8482 42.752 42.8247 44.0093 38.9744C44.237 38.1458 44.5845 37.355 45.0408 36.6269C45.8895 35.4204 46.9555 35.0579 48.1812 36.2587C49.2543 37.2447 50.1446 38.4127 50.8107 39.7089C52.5681 43.4806 54.0594 47.3706 55.2739 51.3504C55.4332 51.8147 55.4807 52.31 55.4125 52.7961C55.3443 53.2822 55.1623 53.7453 54.8813 54.1477C54.6003 54.5502 54.2283 54.8806 53.7955 55.1122C53.3628 55.3438 52.8814 55.4699 52.3907 55.4803C51.3336 55.5194 50.2779 55.5938 49.4243 55.6382Z" fill="#A6CF4A"/>
      <path d="M82.1065 118.754C80.7374 119.041 79.4442 119.453 78.0022 119.168C75.877 118.749 73.4928 115.574 74.1658 113.595C75.6597 109.205 76.5599 104.655 77.9158 100.231C78.2245 99.2226 78.4415 98.0943 79.7771 97.9314C81.1205 97.7675 81.6622 98.8114 82.1221 99.7365C84.4341 104.373 85.9525 109.312 87.4727 114.241C87.9219 115.697 87.4094 116.85 85.9254 117.687C84.6805 118.39 83.2219 117.9 82.1065 118.754Z" fill="#A6CF4A"/>
      <path d="M53.9489 15.097C54.1655 18.9384 52.455 20.6738 48.5983 21.4211C46.5773 21.8123 45.1368 20.942 43.5792 20.2811C41.7652 19.5111 41.0845 18.1356 41.6162 15.9652C42.3002 13.1724 43.5106 10.6104 44.5189 7.96233C45.3434 5.79763 46.1444 3.63187 46.8576 1.42733C47.4245 -0.324771 48.1409 -0.262882 49.5903 0.540254C52.0965 1.92743 52.5994 4.24365 52.9746 6.63883C53.4136 9.44091 53.6337 12.2761 53.9489 15.097Z" fill="#A6CF4A"/>
      <path d="M35.29 100.626C35.3097 99.2245 35.7076 97.8545 36.4417 96.6607C38.203 93.6089 39.4622 90.3373 40.7764 87.0885C41.8435 84.4518 42.0768 84.6577 44.2902 86.0687C46.594 87.5377 47.1713 89.7184 47.9278 91.9073C48.7477 94.2833 49.4505 96.709 50.0353 99.154C50.5688 101.381 50.1178 101.839 47.984 102.573C46.0153 103.248 44.2024 104.326 42.0338 104.467C40.998 104.535 40.5299 104.209 40.2198 103.314C39.9399 102.505 39.3277 102.563 38.6718 102.835C36.8941 103.573 35.2868 102.521 35.29 100.626Z" fill="#A6CF4A"/>
      <path d="M49.506 143.054C47.0663 142.789 44.9475 142.671 42.8718 142.308C39.4572 141.712 38.0071 139.186 38.7387 135.748C39.4679 132.322 40.1529 128.898 41.5073 125.647C42.6078 123.005 43.8993 122.663 45.8111 124.706C46.6652 125.626 47.3497 126.69 47.8328 127.85C49.4441 131.75 51.1464 135.627 51.9752 139.804C52.4233 142.066 51.5316 143.11 49.506 143.054Z" fill="#A6CF4A"/>
      <path d="M22.687 49.3336C22.7528 52.3139 22.0421 52.8342 19.4947 52.7837C18.0449 52.756 16.5848 53.2337 15.1297 53.4855C12.8601 53.8789 9.41889 51.8888 8.81601 49.9599C8.7154 49.6878 8.6701 49.3983 8.68274 49.1085C8.69538 48.8186 8.76572 48.5342 8.88964 48.2719C10.6495 44.269 12.3689 40.2483 14.1448 36.2525C14.9202 34.5097 15.8166 34.3674 17.2663 35.6742C20.5262 38.61 21.2031 42.7456 22.3135 46.6649C22.5122 47.5425 22.6371 48.4351 22.687 49.3336ZM17.68 45.803C17.1109 45.2713 17.945 43.8788 16.661 43.5242C16.2121 43.4 15.93 44.1463 16.0954 44.5795C16.4027 45.3837 16.12 46.5713 17.2247 46.8854C17.765 47.0383 17.6803 46.4116 17.68 45.8016V45.803Z" fill="#A6CF4A"/>
      <path d="M0 85.6678C0.46239 81.0866 1.93351 76.7736 3.50421 72.5075C4.17503 70.685 5.06922 70.6522 6.62534 71.8673C7.94714 72.8986 8.81387 74.4054 9.0408 76.0665C9.65222 79.9822 10.1523 83.9167 10.6218 87.8527C10.8199 89.5138 9.77315 90.3631 8.10464 90.7071C5.4434 91.2556 3.32459 90.2014 1.2545 88.8423C0.11809 88.0986 0.138006 86.8416 0 85.6678Z" fill="#A6CF4A"/>
      <path d="M76.8247 83.8699C76.1044 83.8109 75.276 83.4915 74.9648 83.7632C73.8682 84.7218 72.5344 84.0638 71.3279 84.503C70.0414 84.9711 68.0801 81.803 68.2352 80.2209C68.465 77.8759 70.4921 76.3927 70.8196 74.0398C71.1433 71.7162 72.0727 69.4743 72.7759 67.2086C72.8482 66.881 73.0276 66.5868 73.2858 66.3727C73.544 66.1585 73.8662 66.0365 74.2015 66.0259C75.0391 65.9818 75.482 66.3595 75.8647 67.1172C77.9806 71.3142 79.106 75.8741 80.7208 80.2526C81.6115 82.6705 79.3909 83.5228 76.8247 83.8699Z" fill="#A6CF4A"/>
      <path d="M114.419 93.9484C114.974 96.4083 112.262 97.746 110.471 97.2918C109.637 97.0809 108.961 96.8024 107.95 97.2804C106.709 97.8673 104.831 98.5833 104.509 95.9665C104.484 95.7595 103.946 95.6521 103.717 95.4269C102.294 94.0309 102.251 92.0269 103.553 90.4392C103.864 90.0939 104.111 89.6966 104.284 89.2654C105.267 86.3559 107.427 83.9113 107.643 80.6966C107.699 79.8632 108.008 79.0875 108.959 78.937C109.909 78.7866 110.375 79.4706 110.763 80.2061C110.996 80.528 111.197 80.8715 111.365 81.2319C112.616 85.4114 113.635 89.6566 114.419 93.9484Z" fill="#A6CF4A"/>
    </g>
    <defs>
      <clipPath id="clip0_187_4533">
        <rect width="149" height="179" fill="white"/>
      </clipPath>
    </defs>
  </svg>