<svg xmlns="http://www.w3.org/2000/svg" width="20" height="20" viewBox="0 0 20 20" fill="none">
    <path fill-rule="evenodd" clip-rule="evenodd" d="M10.3316 1.81186L17.279 5.70075C17.9955 6.10179 18.0655 7.07767 17.4892 7.59113V14.0978C18.2412 14.9029 18.6448 15.5874 18.6448 16.2005C18.6448 17.2744 17.7808 18.145 16.715 18.145C15.6492 18.145 14.7852 17.2744 14.7852 16.2005C14.7852 15.5862 15.1904 14.9002 15.9453 14.0929V8.48701L15.5598 8.7028L15.5596 13.0283C15.5596 13.3122 15.4568 13.5863 15.2706 13.7994C14.1617 15.068 12.3177 15.6641 9.77008 15.6641C7.22243 15.6641 5.37848 15.068 4.26958 13.7994C4.08335 13.5863 3.98061 13.3122 3.98061 13.0282L3.98085 8.70392L2.25963 7.74045C1.46554 7.29594 1.46554 6.14525 2.25963 5.70075L9.207 1.81186C9.55671 1.6161 9.98194 1.6161 10.3316 1.81186ZM3.61719 6.71941L9.7698 10.1634L15.9224 6.71941L9.7698 3.27539L3.61719 6.71941ZM16.4921 15.8749C16.3744 16.0588 16.3281 16.1795 16.3281 16.1995C16.3281 16.4142 16.5009 16.5884 16.7141 16.5884C16.9273 16.5884 17.1001 16.4142 17.1001 16.1995C17.1001 16.1795 17.0538 16.0588 16.9361 15.8749C16.8753 15.78 16.8012 15.6773 16.7141 15.5674C16.6269 15.6773 16.5528 15.78 16.4921 15.8749ZM9.76901 11.7929C10.0959 11.793 10.4185 11.7095 10.7067 11.5482L14.015 9.69633L14.0148 12.8765C13.2292 13.6836 11.8288 14.1094 9.76918 14.1094C7.70955 14.1094 6.30916 13.6837 5.52358 12.8765L5.52376 9.69624L8.83224 11.5482C9.12008 11.7093 9.44241 11.7928 9.76901 11.7929Z" fill="#FB6238"/>
  </svg>