<svg xmlns="http://www.w3.org/2000/svg" width="16" height="16" viewBox="0 0 16 16" fill="none">
  <path fill-rule="evenodd" clip-rule="evenodd" d="M11.0944 10.83C12.0282 9.53371 12.6667 8.10903 12.6667 6.66699C12.6667 4.08966 10.5773 2.00033 8 2.00033C5.42267 2.00033 3.33333 4.08966 3.33333 6.66699C3.33333 8.10903 3.97179 9.53371 4.90564 10.83C5.83245 12.1165 6.97209 13.1672 7.78459 13.8326C7.91787 13.9418 8.08213 13.9418 8.21541 13.8326C9.02791 13.1672 10.1675 12.1165 11.0944 10.83ZM9.06026 14.8642C10.7831 13.4531 14 10.3281 14 6.66699C14 3.35328 11.3137 0.666992 8 0.666992C4.68629 0.666992 2 3.35328 2 6.66699C2 10.3281 5.21692 13.4531 6.93974 14.8642C7.56437 15.3757 8.43563 15.3757 9.06026 14.8642Z" fill="#777E91"/>
  <path fill-rule="evenodd" clip-rule="evenodd" d="M7.9987 5.33333C7.26232 5.33333 6.66536 5.93029 6.66536 6.66667C6.66536 7.40305 7.26232 8 7.9987 8C8.73508 8 9.33203 7.40305 9.33203 6.66667C9.33203 5.93029 8.73508 5.33333 7.9987 5.33333ZM5.33203 6.66667C5.33203 5.19391 6.52594 4 7.9987 4C9.47146 4 10.6654 5.19391 10.6654 6.66667C10.6654 8.13943 9.47146 9.33333 7.9987 9.33333C6.52594 9.33333 5.33203 8.13943 5.33203 6.66667Z" fill="#777E91"/>
</svg>