<svg xmlns="http://www.w3.org/2000/svg" width="34" height="33" viewBox="0 0 34 33" fill="none">
    <path d="M6.70508 19.5632H7.34422V20.9616H6.70508V19.5632Z" stroke="#FFFF00" stroke-width="0.137439"/>
    <path d="M27.4274 32.2201L6.57289 32.2202L0.128357 12.3865L16.9999 0.128418L33.8716 12.3863L27.4274 32.2201Z" fill="#24216A"/>
    <path d="M26.3817 30.7785L7.62057 30.7786L1.82294 12.9358L17.0009 1.9082L32.179 12.9356L26.3817 30.7785Z" fill="white"/>
    <path fill-rule="evenodd" clip-rule="evenodd" d="M16.7621 3.24011C16.7724 5.36925 15.6184 7.17399 11.4397 9.87356C5.1087 14.2478 5.41999 16.1699 4.64717 18.466L2.92438 13.2929L16.7621 3.24011Z" fill="#E01E13"/>
    <path fill-rule="evenodd" clip-rule="evenodd" d="M6.29144 23.4141C5.13806 20.1052 5.62757 17.6337 6.74071 15.728C7.78002 13.9487 9.34234 12.62 11.083 11.4214C9.93502 12.8371 9.1731 13.9913 8.67451 14.9672C7.32541 17.6076 7.57207 19.2466 8.02248 20.6167C8.09745 18.7824 8.35295 16.9907 10.2798 15.5205C8.94554 18.7915 9.7438 20.7846 10.4736 21.7523L6.29144 23.4141Z" fill="#E01E13"/>
    <path d="M17.0018 20.0952L6.5376 24.413L8.30148 29.8415H25.7019L27.4658 24.413L17.0018 20.0952Z" fill="#E01E13"/>
    <path fill-rule="evenodd" clip-rule="evenodd" d="M16.2343 15.7057C16.0325 17.5826 16.7667 17.872 17.484 18.2793C17.5335 17.4902 17.7921 17.284 18.1513 17.204C19.8601 16.8233 20.3385 18.7216 21.4344 19.3596C22.0398 19.7074 23.2727 19.5601 23.9044 19.3764C26.1058 18.7363 26.8911 16.4818 27.0688 14.7843C27.4434 14.5615 27.8927 14.5405 28.0008 13.5981C26.1952 12.8575 24.6849 11.9694 23.3302 11.0033C23.5052 10.8795 23.8094 10.8926 23.8703 10.5903C23.8877 10.5405 23.5421 10.2621 23.1588 9.92409C22.2907 9.15858 20.8272 7.99432 20.0894 7.82606C20.0729 7.03098 19.9229 6.25744 19.0409 5.60197C19.0445 6.22652 18.9487 6.87774 18.702 7.44479L18.0242 7.39183C18.3617 6.11935 18.3959 4.74932 17.6316 3.52429L31.0789 13.2928L27.7906 23.4131L17.2906 19.2639C16.2755 18.8237 15.0964 17.818 16.2343 15.7057Z" fill="#24216A"/>
    <path fill-rule="evenodd" clip-rule="evenodd" d="M19.3374 10.622C20.0596 11.0013 20.4638 11.5251 20.7248 12.2C21.0079 12.0987 21.3326 12.0774 21.6992 12.0623C22.0717 11.9459 22.2105 11.6029 22.2393 11.2363C22.0292 11.351 21.7856 11.365 21.5191 11.3104C20.8769 10.6446 20.1306 10.5321 19.3374 10.622Z" fill="#201E5F"/>
    <path d="M17.1059 23.3993C17.1765 22.6846 18.164 22.7774 18.164 22.7774L17.7916 22.3164C17.7916 22.3164 17.3477 22.2563 17.1499 22.7618C17.1469 22.7695 17.1431 22.7795 17.1389 22.7912C17.1361 22.7989 17.13 22.804 17.1216 22.8016C17.1154 22.7998 17.111 22.7946 17.1131 22.7843C17.1154 22.7723 17.1174 22.766 17.1194 22.7576C17.243 22.2563 17.5055 21.8784 17.5055 21.8784L17.0136 21.2144L16.5217 21.8784C16.5217 21.8784 16.7844 22.2563 16.9078 22.7576C16.9099 22.766 16.912 22.7723 16.9142 22.7843C16.9163 22.7946 16.912 22.7999 16.9057 22.8016C16.8974 22.804 16.8912 22.7989 16.8884 22.7912C16.8842 22.7795 16.8803 22.7695 16.8774 22.7618C16.6797 22.2563 16.2358 22.3164 16.2358 22.3164L15.8633 22.7774C15.8633 22.7774 16.8508 22.6846 16.9213 23.3993H17.1059H17.1059Z" fill="white"/>
    <path d="M9.54437 24.3479V27.6714V28.6162H12.3298L12.065 27.6714H10.7517V24.3479H9.54437Z" fill="white"/>
    <path d="M21.8032 24.3531C21.3883 24.3531 21.0542 24.6605 21.0542 25.0422V27.3981L21.4643 28.6109H23.7099C24.1248 28.6109 24.4589 28.3035 24.4589 27.9218V27.088H23.3182V27.7214H22.1949V25.2638H23.3182V25.876H24.4589V25.0422C24.4589 24.6605 24.1248 24.3531 23.7099 24.3531H21.8032Z" fill="white"/>
    <path d="M13.4999 24.3531C13.085 24.3531 12.7509 24.6605 12.7509 25.0422V27.3982L13.161 28.611H15.4066C15.8215 28.611 16.1556 28.3037 16.1556 27.922V25.0422C16.1556 24.6605 15.8215 24.3531 15.4066 24.3531H13.4999ZM13.8916 25.2638H15.0149V27.7216H13.8916V25.2638Z" fill="white"/>
    <path d="M17.9162 26.7839L19.1666 27.0805V27.7216H18.0433V27.3982H16.9026L17.3127 28.611H19.5583C19.9732 28.611 20.3072 28.3037 20.3072 27.922V26.964C20.2873 26.6281 20.0231 26.3399 18.9971 26.1379L18.0433 25.9049V25.2638H19.1666V25.6189H20.3072V25.0422C20.3072 24.6605 19.9732 24.3531 19.5583 24.3531H17.6516C17.2367 24.3531 16.9026 24.6605 16.9026 25.0422L16.9026 26.1379C16.915 26.5476 17.4922 26.6724 17.9162 26.7839Z" fill="white"/>
  </svg>