<svg xmlns="http://www.w3.org/2000/svg" width="20" height="24" viewBox="0 0 20 24" fill="none">
    <path d="M19.1756 21.4655L17.4035 16.503V16.5033C17.2203 15.9943 16.8397 15.5804 16.3476 15.3557L13.0676 13.8642V13.8639C13.8549 13.1581 14.4083 12.2288 14.6535 11.1999H14.7988C15.223 11.1999 15.63 11.0315 15.93 10.7313C16.2302 10.4313 16.3988 10.0243 16.3988 9.60006C16.3972 9.22684 16.264 8.86609 16.0224 8.58153L16.3988 4.79991C16.3988 2.15317 13.3484 0 9.599 0C7.12455 0 5.14302 1.03999 4.83906 2.42686H4.83883C4.26561 2.51669 3.74386 2.81001 3.36931 3.25323C2.9947 3.69643 2.79216 4.2597 2.79885 4.83988L3.17277 8.58153H3.173C2.93235 8.86652 2.80001 9.22704 2.79886 9.60006C2.79886 10.0243 2.96745 10.4313 3.26746 10.7313C3.56747 11.0315 3.97464 11.1999 4.39891 11.1999H4.54418C4.78968 12.2287 5.34353 13.1581 6.1313 13.8639L2.85129 15.3555V15.3557C2.35913 15.5804 1.97826 15.9943 1.79539 16.5035L0.0232755 21.4655C-0.0233767 21.5963 0.00110397 21.7418 0.0877086 21.8501C0.15884 21.9376 1.89536 24 9.59896 24C17.3028 24 19.0387 21.9376 19.1114 21.8501C19.198 21.7418 19.2225 21.5963 19.1758 21.4655L19.1756 21.4655ZM10.3667 17.6001L11.9987 15.2688V17.6001H10.3667ZM10.4868 19.2001H8.71105L8.51105 18.4001H10.6862L10.4868 19.2001ZM7.19878 17.6001V15.2688L8.83072 17.6001H7.19878ZM9.59886 17.3024L7.93162 14.9201C9.01181 15.2924 10.1857 15.2924 11.2659 14.9201L9.59886 17.3024ZM14.7987 10.4003V8.80026C15.2406 8.80026 15.5987 9.15847 15.5987 9.60027C15.5987 10.0421 15.2405 10.4003 14.7987 10.4003ZM5.1988 3.20017C5.30481 3.20017 5.40665 3.15814 5.48172 3.08308C5.55655 3.00802 5.59881 2.9064 5.59881 2.80016C5.59881 1.71606 7.43071 0.800117 9.5989 0.800117C12.9073 0.800117 15.5988 2.59464 15.6011 4.76005L15.269 8.07998V8.08021C15.1173 8.02986 14.9589 8.00307 14.7991 8.00029V6.40029C14.7991 6.29428 14.7568 6.19243 14.6817 6.11737C14.6069 6.04254 14.505 6.00027 14.399 6.00027C14.0194 6.00027 13.6401 5.9684 13.2658 5.90512C13.048 5.86817 12.8415 6.01482 12.8045 6.23261C12.7676 6.4504 12.9145 6.6571 13.1323 6.69382C13.4191 6.74255 13.7085 6.77466 13.999 6.7899V7.83474L13.4311 8.40265H13.4309C13.2029 7.88024 12.7627 7.48002 12.2209 7.30242C11.6793 7.12481 11.0876 7.18694 10.5945 7.47286C10.1012 7.759 9.75361 8.24194 9.63909 8.80036H9.55894C9.44416 8.24215 9.09658 7.75949 8.60351 7.47357C8.11042 7.18765 7.51894 7.12552 6.97736 7.30289C6.43578 7.4805 5.99561 7.88051 5.76739 8.40272L5.19902 7.8348V6.80037C5.98194 6.79922 6.74316 6.54355 7.36792 6.07173C7.99262 5.60012 8.44693 4.93773 8.6622 4.18509C9.42342 5.06018 10.3747 5.74956 11.4433 6.20038C11.5417 6.24519 11.654 6.24842 11.7546 6.20916C11.8553 6.1699 11.9359 6.0916 11.978 5.99183C12.02 5.89229 12.0198 5.78005 11.9777 5.68051C11.9355 5.58097 11.8549 5.50268 11.7542 5.46364C10.6461 4.9955 9.6816 4.24214 8.95899 3.28044L8.71903 2.96033C8.61579 2.82269 8.43588 2.76657 8.27259 2.82084C8.10931 2.87534 7.99915 3.02823 7.99915 3.20029C7.99822 3.94283 7.70284 4.65438 7.17809 5.17935C6.65314 5.7043 5.94134 5.99945 5.19904 6.0004H4.79903C4.57801 6.0004 4.39902 6.17938 4.39902 6.40041V8.00042C4.23898 8.00296 4.08054 8.02998 3.92858 8.08033L3.59901 4.80031C3.59901 4.37605 3.76761 3.96909 4.06761 3.6691C4.36762 3.36886 4.77479 3.20026 5.19907 3.20026L5.1988 3.20017ZM12.7986 9.20006C12.7986 9.51831 12.6722 9.8234 12.4471 10.0486C12.2221 10.2736 11.9168 10.4001 11.5985 10.4001C11.2802 10.4001 10.9752 10.2736 10.75 10.0486C10.525 9.82343 10.3985 9.51834 10.3985 9.20006C10.3985 8.88181 10.525 8.57648 10.75 8.35151C10.9752 8.12634 11.2802 8.00001 11.5985 8.00001C11.9168 8.00001 12.2221 8.12634 12.4471 8.35151C12.6722 8.57646 12.7986 8.88179 12.7986 9.20006ZM8.7985 9.20006C8.7985 9.51831 8.67217 9.8234 8.44722 10.0486C8.22204 10.2736 7.91695 10.4001 7.59867 10.4001C7.28042 10.4001 6.97509 10.2736 6.75013 10.0486C6.52495 9.82343 6.39862 9.51834 6.39862 9.20006C6.39862 8.88181 6.52495 8.57648 6.75013 8.35151C6.97507 8.12634 7.2804 8.00001 7.59867 8.00001C7.91692 8.00001 8.22201 8.12634 8.44722 8.35151C8.67217 8.57646 8.7985 8.88179 8.7985 9.20006ZM4.39862 10.4001C3.9568 10.4001 3.59861 10.0419 3.59861 9.60009C3.59861 9.15829 3.95682 8.80009 4.39862 8.80009V10.4001ZM5.19862 10.0001V8.96566L5.61734 9.38437C5.67461 10.0266 6.03859 10.6015 6.59471 10.9278C7.15084 11.2539 7.83028 11.2911 8.4188 11.0276C9.00704 10.7638 9.43177 10.2322 9.55853 9.60003H9.63867C9.7657 10.2317 10.1904 10.7629 10.7786 11.0262C11.3666 11.2897 12.0459 11.2525 12.6018 10.9266C13.1577 10.6005 13.5219 10.0262 13.5794 9.38431L13.9986 8.96559V10C13.9986 11.5719 13.16 13.0243 11.7985 13.8105C10.4373 14.5964 8.75985 14.5964 7.39864 13.8105C6.03719 13.0243 5.19858 11.5719 5.19858 10L5.19862 10.0001ZM2.54727 16.7727C2.65721 16.4672 2.88562 16.2187 3.18102 16.0836L6.39866 14.6212V18C6.39866 18.106 6.44069 18.2079 6.51575 18.2827C6.59081 18.3578 6.69243 18.4 6.79867 18.4H7.68624L7.99387 19.6292L7.64144 23.1491C3.08151 22.9091 1.34652 21.8611 0.864661 21.4844L2.54727 16.7727ZM8.4421 23.1829L8.7622 19.9997H10.4385L10.7586 23.1829C10.3858 23.1938 10.0013 23.1998 9.59851 23.1998C9.19576 23.1998 8.81146 23.1938 8.44211 23.1829H8.4421ZM11.5558 23.1501L11.2034 19.6302L11.511 18.3999H12.3986C12.5046 18.3999 12.6064 18.3576 12.6815 18.2826C12.7565 18.2077 12.7986 18.1059 12.7986 17.9999V14.6211L16.0162 16.0834C16.3114 16.2186 16.5398 16.4668 16.6497 16.7721L18.3324 21.484C17.8442 21.8662 16.1077 22.9111 11.5557 23.1501L11.5558 23.1501Z" fill="white"/>
    <path d="M13.9986 20.7998C13.7776 20.7998 13.5986 20.979 13.5986 21.1998C13.5986 21.4208 13.7776 21.5998 13.9986 21.5998H16.3987C16.6195 21.5998 16.7987 21.4208 16.7987 21.1998C16.7987 20.979 16.6195 20.7998 16.3987 20.7998H13.9986Z" fill="white"/>
    <path d="M9.59846 13.5998C10.253 13.601 10.8918 13.3998 11.4278 13.0243C11.5176 12.9647 11.5798 12.8714 11.6001 12.7656C11.6202 12.6596 11.5969 12.5499 11.535 12.4614C11.4733 12.373 11.3784 12.3134 11.2719 12.2958C11.1654 12.2783 11.0564 12.3046 10.9696 12.3686C10.5657 12.6444 10.0878 12.7917 9.59863 12.7917C9.10948 12.7917 8.63184 12.6443 8.22767 12.3686C8.0466 12.2446 7.79948 12.2896 7.67385 12.4695C7.54798 12.6492 7.5907 12.8968 7.76923 13.0243C8.30527 13.3998 8.94408 13.601 9.5984 13.5998H9.59846Z" fill="white"/>
  </svg>