<svg xmlns="http://www.w3.org/2000/svg" width="30" height="30" viewBox="0 0 30 30" fill="none">
    <path fill-rule="evenodd" clip-rule="evenodd" d="M15 27.5C21.9036 27.5 27.5 21.9036 27.5 15C27.5 8.09644 21.9036 2.5 15 2.5C8.09644 2.5 2.5 8.09644 2.5 15C2.5 21.9036 8.09644 27.5 15 27.5ZM15 5C14.3096 5 13.75 5.55964 13.75 6.25V7.5C11.6789 7.5 10 9.17893 10 11.25V11.9481C10 13.5622 11.0329 14.9952 12.5641 15.5057L16.6453 16.866C17.1557 17.0362 17.5 17.5139 17.5 18.0519V18.75C17.5 19.4404 16.9404 20 16.25 20H13.75C13.0596 20 12.5 19.4404 12.5 18.75C12.5 18.0596 11.9404 17.5 11.25 17.5C10.5596 17.5 10 18.0596 10 18.75C10 20.8211 11.6789 22.5 13.75 22.5V23.75C13.75 24.4404 14.3096 25 15 25C15.6904 25 16.25 24.4404 16.25 23.75V22.5C18.3211 22.5 20 20.8211 20 18.75V18.0519C20 16.4378 18.9671 15.0048 17.4359 14.4943L13.3547 13.134C12.8443 12.9638 12.5 12.4861 12.5 11.9481V11.25C12.5 10.5596 13.0596 10 13.75 10H16.25C16.9404 10 17.5 10.5596 17.5 11.25C17.5 11.9404 18.0596 12.5 18.75 12.5C19.4404 12.5 20 11.9404 20 11.25C20 9.17893 18.3211 7.5 16.25 7.5V6.25C16.25 5.55964 15.6904 5 15 5Z" fill="white"/>
  </svg>