<svg xmlns="http://www.w3.org/2000/svg" width="24" height="24" viewBox="0 0 24 24" fill="currentColor">
    <path d="M9.87891 6.75788C10.0102 6.75774 10.1403 6.78354 10.2617 6.83383C10.383 6.88411 10.4932 6.95787 10.5859 7.05088L14.8281 11.2936C14.921 11.3864 14.9947 11.4966 15.045 11.6179C15.0952 11.7392 15.1211 11.8693 15.1211 12.0006C15.1211 12.1319 15.0952 12.2619 15.045 12.3833C14.9947 12.5046 14.921 12.6148 14.8281 12.7076L10.5859 16.9503C10.3984 17.1378 10.1441 17.2432 9.87891 17.2432C9.61372 17.2432 9.35939 17.1378 9.17188 16.9503C8.98436 16.7628 8.87901 16.5085 8.87902 16.2433C8.87902 15.9781 8.98436 15.7237 9.17188 15.5362L12.707 12.0006L9.17185 8.46492C9.03204 8.32507 8.93684 8.14691 8.89827 7.95295C8.8597 7.759 8.8795 7.55797 8.95517 7.37527C9.03084 7.19257 9.15898 7.03641 9.32339 6.92652C9.4878 6.81664 9.6811 6.75797 9.87885 6.75792L9.87891 6.75788Z" fill="#262626"/>
  </svg>