<svg xmlns="http://www.w3.org/2000/svg" width="35" height="22" viewBox="0 0 35 22" fill="none">
    <path d="M27.0003 19.5627C20.2863 22.7391 13.7892 22.8837 7.65234 19.5627C7.65234 15.4477 9.89036 11.838 13.2111 10.1777C14.2941 11.1161 15.7378 11.6938 17.3261 11.6938C18.9144 11.6938 20.3582 11.1161 21.4411 10.1777C24.6898 11.9104 27.0002 15.4481 27.0002 19.5627H27.0003Z" fill="white"/>
    <path d="M22.3062 5.34269C22.3062 8.09379 20.0759 10.3241 17.3248 10.3241C14.5737 10.3241 12.3438 8.09379 12.3438 5.34269C12.3438 2.59159 14.5738 0.361328 17.3248 0.361328C20.0758 0.361328 22.3062 2.59159 22.3062 5.34269Z" fill="white"/>
    <path d="M34.6536 14.6552C32.4156 15.7382 30.1776 16.3155 28.0119 16.4599C27.2178 13.3555 25.1965 10.6122 22.4531 9.09593C22.6698 8.87927 22.8141 8.59059 22.9585 8.30187C23.3195 8.01319 23.7525 7.72422 24.1858 7.50781C25.0521 8.22981 26.1351 8.66282 27.2901 8.66282C28.5174 8.66282 29.6002 8.22979 30.3945 7.50781C32.9209 8.80719 34.6536 11.5505 34.6536 14.6549L34.6536 14.6552Z" fill="white"/>
    <path d="M31.1136 3.82556C31.1136 5.91921 29.4532 7.57962 27.3595 7.57962C25.6268 7.57962 24.1831 6.42461 23.7498 4.83628C23.7498 4.54759 23.6775 4.25862 23.6055 3.96993V3.89761C23.6055 1.80396 25.2658 0.143555 27.3595 0.143555C29.4533 0.143555 31.1136 1.73189 31.1136 3.82554L31.1136 3.82556Z" fill="white"/>
    <path d="M12.2005 9.169C9.45718 10.685 7.43582 13.4284 6.64177 16.533C4.33175 16.4609 2.16573 15.811 0 14.656C0 11.5516 1.7327 8.80826 4.18709 7.58118C5.05344 8.30317 6.13645 8.73619 7.29146 8.73619C8.44647 8.73619 9.60148 8.30316 10.3958 7.58118C10.8289 7.79783 11.2622 8.08651 11.6231 8.37523C11.8398 8.66392 11.9841 8.88057 12.2005 9.16929L12.2005 9.169Z" fill="white"/>
    <path d="M11.1175 3.82611V3.89843C11.0452 4.18711 11.0452 4.47608 10.9731 4.76477C10.5401 6.35311 9.09613 7.50812 7.36343 7.50812C5.26978 7.50812 3.60938 5.84778 3.60938 3.75406C3.60938 1.66033 5.26971 3.53529e-08 7.36343 3.53529e-08C9.45709 -0.000285772 11.1175 1.73241 11.1175 3.82606L11.1175 3.82611Z" fill="white"/>
  </svg>