<svg xmlns="http://www.w3.org/2000/svg" width="24" height="24" viewBox="0 0 24 24" fill="currentColor">
    <path d="M14.1211 17.2441C13.9898 17.2442 13.8597 17.2184 13.7383 17.1681C13.617 17.1178 13.5068 17.0441 13.4141 16.9511L9.17188 12.7084C9.079 12.6156 9.00532 12.5053 8.95505 12.384C8.90478 12.2627 8.87891 12.1327 8.87891 12.0014C8.87891 11.87 8.90478 11.74 8.95505 11.6187C9.00532 11.4974 9.079 11.3872 9.17188 11.2943L13.4141 7.05165C13.6016 6.86413 13.8559 6.75879 14.1211 6.75879C14.3863 6.75879 14.6406 6.86414 14.8281 7.05165C15.0156 7.23917 15.121 7.4935 15.121 7.75869C15.121 8.02388 15.0156 8.2782 14.8281 8.46572L11.293 12.0014L14.8281 15.537C14.968 15.6769 15.0632 15.855 15.1017 16.049C15.1403 16.243 15.1205 16.444 15.0448 16.6267C14.9692 16.8094 14.841 16.9655 14.6766 17.0754C14.5122 17.1853 14.3189 17.244 14.1212 17.244L14.1211 17.2441Z" fill="#262626"/>
  </svg>