<svg xmlns="http://www.w3.org/2000/svg" width="29" height="29" viewBox="0 0 29 29" fill="none">
    <path d="M13.3905 3.77926C13.8103 2.80649 15.1897 2.80649 15.6094 3.77926L18.2436 9.88362C18.4214 10.2955 18.8127 10.575 19.26 10.6096L26.0154 11.1316C27.0992 11.2153 27.5299 12.576 26.6916 13.2681L21.6113 17.4626C21.2529 17.7584 21.096 18.2336 21.2076 18.6847L22.7711 25.0022C23.0283 26.0412 21.9075 26.8768 20.9852 26.3338L15.113 22.8768C14.7347 22.6541 14.2653 22.6541 13.887 22.8768L8.01479 26.3338C7.09247 26.8768 5.97171 26.0412 6.22883 25.0022L7.79234 18.6847C7.90398 18.2336 7.74705 17.7584 7.38871 17.4626L2.30841 13.2681C1.47011 12.576 1.90077 11.2153 2.98463 11.1316L9.74 10.6096C10.1873 10.575 10.5786 10.2955 10.7563 9.88362L13.3905 3.77926Z" fill="#226BFC"/>
  </svg>