<svg xmlns="http://www.w3.org/2000/svg" width="12" height="12" viewBox="0 0 12 12" fill="none">
    <path d="M5.54103 1.56386C5.71473 1.16133 6.28549 1.16133 6.45919 1.56386L7.54921 4.0898C7.62276 4.26024 7.78468 4.37591 7.96976 4.39021L10.7651 4.6062C11.2136 4.64086 11.3918 5.20389 11.0449 5.49028L8.94271 7.22592C8.79443 7.34835 8.7295 7.54495 8.77569 7.73161L9.42266 10.3458C9.52906 10.7757 9.06529 11.1215 8.68364 10.8968L6.25377 9.46628C6.09722 9.37412 5.903 9.37412 5.74645 9.46628L3.31658 10.8968C2.93493 11.1215 2.47117 10.7757 2.57757 10.3458L3.22453 7.73161C3.27073 7.54495 3.20579 7.34835 3.05751 7.22592L0.955321 5.49028C0.608441 5.20389 0.786643 4.64086 1.23514 4.6062L4.03046 4.39021C4.21554 4.37591 4.37747 4.26024 4.45102 4.0898L5.54103 1.56386Z" fill="#FBAB5E"/>
  </svg>