<svg xmlns="http://www.w3.org/2000/svg" width="33" height="40" viewBox="0 0 33 40" fill="none">
    <path d="M16.0231 6.63318C24.8479 6.63318 32.0462 13.8314 32.0462 22.6563C32.0462 31.1446 25.3812 38.1258 17.0199 38.6438L16.0244 39.9999L15.0289 38.6438C6.66497 38.1245 0 31.1446 0 22.6563C0 13.8314 7.19827 6.63318 16.0231 6.63318Z" fill="#003764"/>
    <path d="M9.41908 10.9364C8.79436 10.5708 8.27122 10.0476 7.90553 9.42797C7.81918 9.2756 7.78363 9.1283 7.78363 8.95562C7.78363 8.58993 7.99187 8.31566 8.31693 8.16837C9.26163 7.73665 10.2419 7.39127 11.2425 7.12716C14.3762 6.2942 17.6687 6.2942 20.8038 7.12716C21.8043 7.39127 22.7846 7.73665 23.7293 8.16837C24.0543 8.31566 24.2626 8.58993 24.2626 8.95562C24.2626 9.1283 24.227 9.2756 24.1407 9.42797C23.775 10.0476 23.2519 10.5708 22.6271 10.9364C21.9973 11.3123 21.2812 11.5104 20.5549 11.5358L18.442 8.7423C17.6395 8.64072 16.8319 8.58993 16.0244 8.58993C15.2168 8.58993 14.4092 8.64072 13.6068 8.7423L11.4939 11.5358C10.765 11.5104 10.0489 11.3123 9.41908 10.9364Z" fill="black"/>
    <path d="M16.7494 0.308515C16.9373 0.49644 17.0542 0.76055 17.0542 1.04498C17.0542 1.18211 17.0288 1.31924 16.9729 1.4513C17.2573 1.4513 17.5113 1.56812 17.6992 1.75604C17.8871 1.94397 18.0039 2.20808 18.0039 2.4925C18.0039 3.07151 17.5367 3.53879 16.9577 3.53879C16.785 3.53879 16.6123 3.49307 16.4599 3.40673C16.4853 3.92987 16.7037 4.39714 17.0491 4.74252C17.7601 5.45866 18.8978 5.51961 19.6851 4.89997C20.0152 4.64602 20.259 4.28541 20.3758 3.87908C20.2184 3.90956 20.0508 3.91971 19.8984 3.88416C19.6191 3.81813 19.3905 3.64545 19.2483 3.41689C18.9385 2.9293 19.0908 2.26903 19.5886 1.96936C19.8019 1.84239 20.066 1.7916 20.3301 1.83731C20.259 1.4259 20.447 0.999265 20.8076 0.775787C21.0361 0.633574 21.3155 0.577705 21.5948 0.643732C21.8792 0.704681 22.1078 0.877368 22.25 1.10593C22.4735 1.46654 22.4583 1.92873 22.2094 2.2741C22.4735 2.34013 22.697 2.50266 22.8392 2.71598C22.9865 2.93946 23.0474 3.22389 22.9814 3.52355C22.9154 3.8029 22.7427 4.03145 22.5141 4.17367C22.1434 4.4073 21.6608 4.37683 21.3205 4.11272C21.2088 4.63586 21.3155 5.159 21.5796 5.58564C21.8538 6.01736 22.2856 6.34242 22.8239 6.45924C23.4182 6.59129 24.1191 6.57097 24.6067 6.14941C24.2461 6.05291 23.9464 5.76849 23.855 5.40787C23.7077 4.82378 24.114 4.15843 24.7845 4.09748C25.2365 4.06701 25.4701 4.27525 25.7596 4.53428C25.9983 4.14319 26.3285 3.25436 26.9126 3.27976C27.2275 3.30515 27.6084 3.53879 27.9385 3.76734C28.1061 3.88924 28.2738 4.01622 28.4464 4.13303L26.9888 5.64659C27.1107 5.95641 26.9938 6.35258 26.7602 6.58621C26.5113 6.83508 26.0542 6.94174 25.7241 6.79953C25.3025 7.14999 24.7997 7.39886 24.2562 7.52583C23.7229 7.65281 23.1541 7.66297 22.5852 7.53091C22.1129 7.42425 21.6812 7.22617 21.3104 6.96714C20.9295 6.69795 20.6044 6.36273 20.3505 5.98181C19.9797 6.18497 19.5683 6.3221 19.1416 6.38813C18.3392 6.50495 17.5062 6.35258 16.8002 5.95133C16.4955 5.77864 16.272 5.58564 16.0231 5.352C15.7742 5.58564 15.5508 5.77864 15.246 5.95133C14.54 6.35258 13.7071 6.50495 12.9046 6.38813C12.4779 6.3221 12.0665 6.18497 11.6958 5.98181C11.4418 6.36273 11.1168 6.69795 10.7358 6.96714C10.3651 7.22617 9.93334 7.42425 9.46098 7.53091C8.89213 7.66297 8.32328 7.65281 7.78998 7.52583C7.24652 7.39886 6.7437 7.14999 6.32214 6.79953C5.992 6.94174 5.53488 6.83508 5.28601 6.58621C5.05237 6.35258 4.93556 5.95641 5.05745 5.64659L3.59723 4.1343C3.76992 4.01749 3.93753 3.89051 4.10513 3.76861C4.43527 3.54006 4.8162 3.30642 5.1311 3.28102C5.71519 3.25563 6.04533 4.14446 6.28404 4.53555C6.57355 4.27652 6.80718 4.06828 7.25922 4.09875C7.92965 4.1597 8.33598 4.82505 8.18868 5.40914C8.09726 5.76976 7.7976 6.05418 7.43699 6.15068C7.92457 6.57224 8.62548 6.59256 9.21973 6.46051C9.75811 6.34369 10.1898 6.01863 10.4641 5.58691C10.7282 5.16027 10.8349 4.63713 10.7231 4.11399C10.3828 4.3781 9.90032 4.40857 9.52955 4.17494C9.30099 4.03272 9.12831 3.80417 9.06228 3.52482C8.99625 3.22516 9.0572 2.94073 9.20449 2.71725C9.3467 2.50393 9.57018 2.3414 9.83429 2.27537C9.58542 1.93 9.57018 1.46781 9.79366 1.10719C9.93587 0.878638 10.1644 0.70595 10.4489 0.645002C10.7282 0.578974 11.0076 0.634844 11.2361 0.777057C11.5967 1.00053 11.7846 1.42717 11.7135 1.83858C11.9776 1.79287 12.2418 1.84366 12.4551 1.97063C12.9528 2.2703 13.1052 2.93057 12.7954 3.41816C12.6532 3.64672 12.4246 3.8194 12.1453 3.88543C11.9929 3.92098 11.8253 3.91083 11.6678 3.88035C11.7846 4.28667 12.0284 4.64729 12.3586 4.90124C13.1458 5.52088 14.2835 5.45993 14.9946 4.74379C15.34 4.39841 15.5584 3.93114 15.5838 3.408C15.4314 3.49434 15.2587 3.54006 15.086 3.54006C14.507 3.54006 14.0397 3.07278 14.0397 2.49377C14.0397 2.20935 14.1566 1.94524 14.3445 1.75731C14.5324 1.56939 14.7864 1.45257 15.0708 1.45257C15.0149 1.32051 14.9895 1.18338 14.9895 1.04625C14.9895 0.76182 15.1063 0.49771 15.2943 0.309785C15.698 -0.102887 16.3482 -0.102887 16.7494 0.308515Z" fill="#003764"/>
    <path d="M16.0231 5.2111C16.2669 5.47521 16.5361 5.69361 16.8459 5.87138C17.5316 6.26247 18.3493 6.40976 19.1315 6.29294C19.5784 6.22691 20.0051 6.07454 20.386 5.85106C20.6349 6.21168 20.8888 6.57229 21.3612 6.88719C21.7269 7.14622 22.1434 7.33414 22.6056 7.4408C23.1592 7.56778 23.7128 7.55762 24.2309 7.43573C24.7845 7.30367 25.2771 7.04972 25.7089 6.68403C26.0187 6.84148 26.4504 6.76021 26.6942 6.51642C26.9227 6.29294 27.0091 5.92217 26.877 5.62251L28.2992 4.14958C28.1823 4.06832 28.0351 3.95658 27.8776 3.84484C27.5627 3.62644 27.2021 3.39789 26.9075 3.37757C26.3844 3.3471 26.0238 4.27656 25.785 4.69304C25.4803 4.40862 25.2517 4.15466 24.7946 4.1953C24.1801 4.25117 23.8093 4.86065 23.9566 5.39903C24.0683 5.81551 24.3985 6.01867 24.8048 6.09486C24.2512 6.64339 23.535 6.7145 22.8036 6.55705C22.2399 6.43515 21.7828 6.08978 21.4983 5.63774C21.1885 5.14 21.0869 4.50004 21.2698 3.94134C21.6101 4.25117 22.0519 4.34767 22.4633 4.09372C22.6716 3.96166 22.829 3.7585 22.8849 3.49947C22.9509 3.23028 22.8951 2.97125 22.7579 2.76809C22.5802 2.50905 22.3364 2.39224 22.0367 2.33637C22.3262 1.99099 22.4176 1.55927 22.1688 1.15803C22.0367 0.949788 21.8285 0.797417 21.5745 0.736468C21.3206 0.675519 21.0615 0.72631 20.8584 0.858365C20.447 1.11232 20.3505 1.53388 20.4571 1.9656C20.1676 1.89449 19.9035 1.89449 19.6394 2.05702C19.1874 2.32621 19.0502 2.92554 19.3296 3.36741C19.4566 3.57565 19.6648 3.7331 19.9187 3.78897C20.1168 3.83468 20.3149 3.79913 20.5079 3.74326C20.386 4.24101 20.1575 4.65749 19.7461 4.97747C18.9182 5.62759 17.7246 5.56156 16.978 4.80986C16.5463 4.37306 16.3634 3.83976 16.3634 3.23536C16.5513 3.35725 16.7291 3.4436 16.9577 3.4436C17.4808 3.4436 17.9074 3.01696 17.9074 2.49382C17.9074 2.23479 17.8008 1.99607 17.6332 1.82338C17.3843 1.57959 17.1253 1.54404 16.8205 1.54911C16.9018 1.38659 16.9577 1.23421 16.9577 1.04629C16.9577 0.787258 16.851 0.548543 16.6834 0.375856C16.3177 0.00508578 15.7285 0.00508578 15.3628 0.375856C15.1952 0.548543 15.0886 0.787258 15.0886 1.04629C15.0886 1.23421 15.1444 1.38659 15.2257 1.54911C14.921 1.54404 14.6619 1.57959 14.4131 1.82338C14.2455 1.99607 14.1388 2.23479 14.1388 2.49382C14.1388 3.01696 14.5654 3.4436 15.0886 3.4436C15.3171 3.4436 15.4949 3.35725 15.6828 3.23536C15.6828 3.83976 15.5 4.37306 15.0683 4.80986C14.3216 5.56156 13.1281 5.62759 12.3002 4.97747C11.8888 4.65749 11.6602 4.24101 11.5383 3.74326C11.7313 3.79913 11.9294 3.83468 12.1275 3.78897C12.3814 3.7331 12.5897 3.57565 12.7167 3.36741C12.996 2.92554 12.8589 2.32621 12.4068 2.05702C12.1427 1.89449 11.8786 1.89449 11.5891 1.9656C11.6958 1.53388 11.5993 1.11232 11.1879 0.858365C10.9847 0.72631 10.7257 0.675519 10.4717 0.736468C10.2178 0.797417 10.0095 0.949788 9.87748 1.15803C9.6286 1.55927 9.72003 1.99099 10.0095 2.33637C9.70987 2.39224 9.46607 2.50905 9.28831 2.76809C9.15117 2.97125 9.0953 3.23028 9.16133 3.49947C9.2172 3.7585 9.37465 3.96166 9.58289 4.09372C9.99429 4.34767 10.4362 4.25117 10.7765 3.94134C10.9593 4.50004 10.8577 5.14 10.5479 5.63774C10.2635 6.08978 9.80637 6.43515 9.2426 6.55705C8.51121 6.7145 7.79507 6.64339 7.24145 6.09486C7.64778 6.01867 7.97791 5.81551 8.08965 5.39903C8.23694 4.86065 7.86617 4.25117 7.25161 4.1953C6.7945 4.15466 6.56594 4.40862 6.2612 4.69304C6.02248 4.27656 5.66187 3.3471 5.13873 3.37757C4.84414 3.39789 4.48353 3.62644 4.16863 3.84484C4.01118 3.95658 3.86389 4.06832 3.74707 4.14958L5.1692 5.62251C5.03715 5.92217 5.12349 6.29294 5.35205 6.51642C5.59584 6.76021 6.02756 6.84148 6.33738 6.68403C6.7691 7.04972 7.26177 7.30367 7.81538 7.43573C8.33345 7.55762 8.88706 7.56778 9.44068 7.4408C9.90287 7.33414 10.3194 7.14622 10.685 6.88719C11.1574 6.57229 11.4113 6.21168 11.6602 5.85106C12.0411 6.07454 12.4678 6.22691 12.9147 6.29294C13.6969 6.40976 14.5146 6.26247 15.2003 5.87138C15.5101 5.69361 15.7793 5.47521 16.0231 5.2111Z" fill="#FFE667"/>
    <path d="M18.3849 8.83245L28.769 22.5484L16.0231 39.8375L3.27728 22.5497L13.6614 8.83372C14.4385 8.73721 15.2308 8.68642 16.0231 8.68642C16.8155 8.68515 17.6078 8.73594 18.3849 8.83245Z" fill="#FFE667"/>
    <path d="M11.2628 7.21735C10.2673 7.48146 9.29718 7.82683 8.35756 8.25347C8.06297 8.38553 7.88013 8.62424 7.88013 8.95438C7.88013 9.11183 7.9106 9.23881 7.99187 9.38102C8.17979 9.69592 8.40835 9.98543 8.66738 10.2445C9.57145 9.71116 10.5466 9.29468 11.5929 9.02041C14.2746 8.3195 17.7703 8.3195 20.452 9.02041C21.412 9.27436 22.316 9.64513 23.1604 10.1175L22.0938 10.3918L21.3421 10.4527L21.525 9.90416L21.3066 9.61974L20.9968 9.98543L20.7784 10.0159L20.6057 9.50292L20.3924 9.9448L19.9149 10.1835L20.7479 11.2907C21.3015 11.2907 22.038 11.179 22.5763 10.8539C22.8709 10.6813 23.13 10.4781 23.3788 10.2445C23.6379 9.98543 23.8664 9.69592 24.0543 9.38102C24.1356 9.23881 24.1661 9.11183 24.1661 8.95438C24.1661 8.62424 23.9832 8.38553 23.6887 8.25347C22.749 7.82683 21.7789 7.48146 20.7834 7.21735C17.6636 6.38946 14.3813 6.38946 11.2628 7.21735Z" fill="#FFE667"/>
    <path d="M14.5845 8.77661L11.6996 12.5872V31.8913L14.5845 35.4632V8.77661ZM8.81849 16.3977L5.93359 20.2019V24.754L8.81976 28.3258V16.3977H8.81849ZM17.4605 35.4632L20.3454 31.8913V12.5872L17.4605 8.77661V35.4632ZM23.2265 28.3258L26.1114 24.754V20.2019L23.2265 16.3964V28.3258Z" fill="#E70005"/>
    <path d="M11.3898 18.988C10.9276 18.6985 10.5416 18.5868 10.0235 18.5868C8.13411 18.5868 6.75134 20.2324 6.75134 22.4939C6.75134 24.6271 8.15824 26.3095 9.93717 26.3095C10.4603 26.3095 10.8616 26.1978 11.3898 25.9082V23.7293C11.0546 24.0493 10.7193 24.2118 10.3486 24.2118C9.48514 24.2118 8.90613 23.4906 8.90613 22.4342C8.90613 21.4387 9.51053 20.7022 10.3181 20.7022C10.694 20.7022 10.9885 20.8292 11.3898 21.1644V18.988Z" fill="black"/>
    <path d="M25.0143 20.3034V18.6832H20.6653V26.2878H22.6373V23.154H24.7959V21.5338H22.6373V20.3034H25.0143Z" fill="black"/>
    <path d="M16.0231 2.89387C16.3634 2.89387 16.6377 2.61453 16.6377 2.27423C16.6377 1.93394 16.3634 1.65967 16.0231 1.65967C15.6879 1.65967 15.4086 1.93394 15.4086 2.27423C15.4086 2.61453 15.6879 2.89387 16.0231 2.89387Z" fill="#E70005"/>
    <path d="M21.1326 3.49446C21.4729 3.49446 21.7472 3.22019 21.7472 2.8799C21.7472 2.5396 21.4729 2.26025 21.1326 2.26025C20.7923 2.26025 20.513 2.5396 20.513 2.8799C20.513 3.22019 20.7923 3.49446 21.1326 3.49446Z" fill="#E70005"/>
    <path d="M26.2739 6.76528C26.6142 6.76528 26.8935 6.48594 26.8935 6.14564C26.8935 5.80535 26.6142 5.526 26.2739 5.526C25.9336 5.526 25.6593 5.80535 25.6593 6.14564C25.6593 6.48594 25.9336 6.76528 26.2739 6.76528Z" fill="#E70005"/>
    <path d="M10.9174 3.49446C11.2577 3.49446 11.532 3.22019 11.532 2.8799C11.532 2.5396 11.2577 2.26025 10.9174 2.26025C10.5771 2.26025 10.2978 2.5396 10.2978 2.8799C10.2978 3.22019 10.5771 3.49446 10.9174 3.49446Z" fill="#E70005"/>
    <path d="M5.77107 6.76528C6.11137 6.76528 6.38564 6.48594 6.38564 6.14564C6.38564 5.80535 6.11137 5.526 5.77107 5.526C5.43078 5.526 5.15143 5.80535 5.15143 6.14564C5.15143 6.48594 5.43078 6.76528 5.77107 6.76528Z" fill="#E70005"/>
    <path d="M14.5591 7.53224L16.0231 6.9126L17.4859 7.53224L16.0231 8.15188L14.5591 7.53224Z" fill="#E70005"/>
    <path d="M8.38171 9.21472L9.56132 8.14685L11.146 8.25859L9.96764 9.32138L8.38171 9.21472Z" fill="#005187"/>
    <path d="M23.6633 9.21472L22.485 8.14685L20.899 8.25859L22.0787 9.32138L23.6633 9.21472Z" fill="#005187"/>
    <path d="M11.5625 10.9416L12.9287 9.13342L10.7194 9.75307L11.1409 10.4235L11.1054 10.967L11.5625 10.9416Z" fill="#FFE667"/>
    <path d="M14.0816 37.8706C6.54308 36.9106 0.685669 30.4437 0.685669 22.6563C0.685669 17.1443 3.61628 12.2925 8.00584 9.59045C8.36645 10.139 8.84896 10.6012 9.41781 10.9364C9.94603 11.2513 10.5301 11.4392 11.1295 11.5103L10.2 12.7395H6.3196V15.5177H8.09726L2.77823 22.5433L14.0816 37.8706Z" fill="#005187"/>
    <path d="M24.0391 9.59045C28.4287 12.2925 31.3593 17.1443 31.3593 22.6563C31.3593 30.4437 25.5019 36.9106 17.9633 37.8718L29.2667 22.5446L23.9477 15.519H25.7254V12.7407H21.8437L20.9142 11.5116C21.5136 11.4405 22.0977 11.2526 22.6259 10.9377C23.196 10.6012 23.6785 10.139 24.0391 9.59045Z" fill="#005187"/>
    <path d="M11.4913 11.5357L10.3485 13.0442H6.62431V15.213H8.7118L3.15405 22.5433L14.9451 38.5359C6.68018 37.9772 0.106628 31.0583 0.106628 22.6563C0.106628 16.9005 3.1858 11.8455 7.78741 9.047C7.79757 9.18413 7.83312 9.30095 7.90423 9.42793C7.91439 9.43808 8.00581 9.59045 8.00581 9.59045C3.61752 12.2925 0.685639 17.1443 0.685639 22.6563C0.685639 30.4437 6.54305 36.9106 14.0816 37.8718L2.7782 22.5446L8.09723 15.519H6.31957V12.7407H10.2012L11.1307 11.5116C11.2526 11.5205 11.3745 11.5306 11.4913 11.5357Z" fill="white"/>
    <path d="M20.5536 11.5358L21.6964 13.0443H25.4206V15.213H23.3331L28.8909 22.5433L17.0999 38.536C25.3647 37.9773 31.9383 31.0583 31.9383 22.6551C31.9383 16.8992 28.8591 11.8443 24.2575 9.04578C24.2473 9.18291 24.2118 9.29973 24.1407 9.4267C24.1305 9.43686 24.0391 9.58923 24.0391 9.58923C28.4287 12.2913 31.3593 17.143 31.3593 22.6551C31.3593 30.4425 25.5019 36.9094 17.9633 37.8706L29.2667 22.5433L23.9477 15.5177H25.7253V12.7395H21.8437L20.9142 11.5104C20.7923 11.5205 20.6704 11.5307 20.5536 11.5358Z" fill="white"/>
    <path d="M6.62433 13.0443V15.2143L10.9275 15.2093L16.0231 31.5105L21.1186 15.2093L25.4206 15.2143V13.0443H19.2534L16.0231 23.4691L12.7916 13.0443H6.62433Z" fill="black"/>
  </svg>